G04 #@! TF.GenerationSoftware,KiCad,Pcbnew,10.0.6*
G04 #@! TF.CreationDate,2026-10-07T20:55:34+02:00*
G04 #@! TF.ProjectId,Starbie,53746172-6269-4652-9e6b-696361645f70,rev?*
G04 #@! TF.SameCoordinates,Original*
G04 #@! TF.FileFunction,Copper,L1,Top*
G04 #@! TF.FilePolarity,Positive*
%FSLAX46Y46*%
G04 Gerber Fmt 4.6, Leading zero omitted, Abs format (unit mm)*
G04 Created by KiCad (PCBNEW 10.0.6) date 2026-10-07 20:55:34*
%MOMM*%
%LPD*%
G01*
G04 APERTURE LIST*
G04 Aperture macros list*
%AMRoundRect*
0 Rectangle with rounded corners*
0 $1 Rounding radius*
0 $2 $3 $4 $5 $6 $7 $8 $9 X,Y pos of 4 corners*
0 Add a 4 corners polygon primitive as box body*
4,1,4,$2,$3,$4,$5,$6,$7,$8,$9,$2,$3,0*
0 Add four circle primitives for the rounded corners*
1,1,$1+$1,$2,$3*
1,1,$1+$1,$4,$5*
1,1,$1+$1,$6,$7*
1,1,$1+$1,$8,$9*
0 Add four rect primitives between the rounded corners*
20,1,$1+$1,$2,$3,$4,$5,0*
20,1,$1+$1,$4,$5,$6,$7,0*
20,1,$1+$1,$6,$7,$8,$9,0*
20,1,$1+$1,$8,$9,$2,$3,0*%
G04 Aperture macros list end*
G04 #@! TA.AperFunction,ComponentPad*
%ADD10O,1.700000X1.700000*%
G04 #@! TD*
G04 #@! TA.AperFunction,ComponentPad*
%ADD11R,1.700000X1.700000*%
G04 #@! TD*
G04 #@! TA.AperFunction,SMDPad,CuDef*
%ADD12RoundRect,0.152400X1.063600X0.609600X-1.063600X0.609600X-1.063600X-0.609600X1.063600X-0.609600X0*%
G04 #@! TD*
G04 #@! TA.AperFunction,ComponentPad*
%ADD13C,1.524000*%
G04 #@! TD*
G04 #@! TA.AperFunction,SMDPad,CuDef*
%ADD14RoundRect,0.152400X-1.063600X-0.609600X1.063600X-0.609600X1.063600X0.609600X-1.063600X0.609600X0*%
G04 #@! TD*
G04 #@! TA.AperFunction,ComponentPad*
%ADD15C,2.200000*%
G04 #@! TD*
G04 #@! TA.AperFunction,ComponentPad*
%ADD16C,1.400000*%
G04 #@! TD*
G04 #@! TA.AperFunction,ComponentPad*
%ADD17C,1.700000*%
G04 #@! TD*
G04 #@! TA.AperFunction,ComponentPad*
%ADD18R,1.500000X1.500000*%
G04 #@! TD*
G04 #@! TA.AperFunction,ComponentPad*
%ADD19C,1.500000*%
G04 #@! TD*
G04 #@! TA.AperFunction,ViaPad*
%ADD20C,0.600000*%
G04 #@! TD*
G04 #@! TA.AperFunction,Conductor*
%ADD21C,0.200000*%
G04 #@! TD*
G04 APERTURE END LIST*
D10*
G04 #@! TO.P,J2,4,Pin_4_4*
G04 #@! TO.N,/SDA*
X152556000Y-97000000D03*
G04 #@! TO.P,J2,3,Pin_3_3*
G04 #@! TO.N,/SCL*
X155096000Y-97000000D03*
G04 #@! TO.P,J2,2,Pin_2_2*
G04 #@! TO.N,+3.3V*
X157636000Y-97000000D03*
D11*
G04 #@! TO.P,J2,1,Pin_1_1*
G04 #@! TO.N,GND*
X160176000Y-97000000D03*
G04 #@! TD*
D12*
G04 #@! TO.P,U2,1,D0_1*
G04 #@! TO.N,unconnected-(U2-D0-Pad1)*
X176665000Y-80760000D03*
D13*
G04 #@! TO.N,unconnected-(U2-D0-Pad1)_1*
X177500000Y-80760000D03*
D12*
G04 #@! TO.P,U2,2,D1_2*
G04 #@! TO.N,/DHT11 DATA*
X176665000Y-83300000D03*
D13*
X177500000Y-83300000D03*
D12*
G04 #@! TO.P,U2,3,D2_3*
G04 #@! TO.N,/GPIO2*
X176665000Y-85840000D03*
D13*
X177500000Y-85840000D03*
D12*
G04 #@! TO.P,U2,4,D3_4*
G04 #@! TO.N,/GPIO3*
X176665000Y-88380000D03*
D13*
X177500000Y-88380000D03*
D12*
G04 #@! TO.P,U2,5,D4_5*
G04 #@! TO.N,/SCL*
X176665000Y-90920000D03*
D13*
X177500000Y-90920000D03*
D12*
G04 #@! TO.P,U2,6,D5_6*
G04 #@! TO.N,/SDA*
X176665000Y-93460000D03*
D13*
X177500000Y-93460000D03*
D12*
G04 #@! TO.P,U2,7,D6_7*
G04 #@! TO.N,unconnected-(U2-D6-Pad7)*
X176665000Y-96000000D03*
D13*
G04 #@! TO.N,unconnected-(U2-D6-Pad7)_1*
X177500000Y-96000000D03*
G04 #@! TO.P,U2,8,D7_8*
G04 #@! TO.N,unconnected-(U2-D7-Pad8)_1*
X192740000Y-96000000D03*
D14*
G04 #@! TO.N,unconnected-(U2-D7-Pad8)*
X193575000Y-96000000D03*
D13*
G04 #@! TO.P,U2,9,D8_9*
G04 #@! TO.N,unconnected-(U2-D8-Pad9)_1*
X192740000Y-93460000D03*
D14*
G04 #@! TO.N,unconnected-(U2-D8-Pad9)*
X193575000Y-93460000D03*
D13*
G04 #@! TO.P,U2,10,D9/BOOT_10*
G04 #@! TO.N,unconnected-(U2-D9{slash}BOOT-Pad10)_1*
X192740000Y-90920000D03*
D14*
G04 #@! TO.N,unconnected-(U2-D9{slash}BOOT-Pad10)*
X193575000Y-90920000D03*
D13*
G04 #@! TO.P,U2,11,D10_11*
G04 #@! TO.N,unconnected-(U2-D10-Pad11)*
X192740000Y-88380000D03*
D14*
G04 #@! TO.N,unconnected-(U2-D10-Pad11)_1*
X193575000Y-88380000D03*
D13*
G04 #@! TO.P,U2,12,3V3_OUT_12*
G04 #@! TO.N,+3.3V*
X192740000Y-85840000D03*
D14*
X193575000Y-85840000D03*
D13*
G04 #@! TO.P,U2,13,GND_13*
G04 #@! TO.N,GND*
X192740000Y-83300000D03*
D14*
X193575000Y-83300000D03*
D13*
G04 #@! TO.P,U2,14,VBUS_14*
G04 #@! TO.N,+5V*
X192740000Y-80760000D03*
D14*
X193575000Y-80760000D03*
G04 #@! TD*
D15*
G04 #@! TO.P,SW2,1,1_1*
G04 #@! TO.N,/GPIO3*
X122370000Y-114670000D03*
G04 #@! TO.P,SW2,2,2_2*
G04 #@! TO.N,GND*
X116020000Y-117210000D03*
G04 #@! TD*
G04 #@! TO.P,SW1,1,1_1*
G04 #@! TO.N,/GPIO2*
X127040000Y-85920000D03*
G04 #@! TO.P,SW1,2,2_2*
G04 #@! TO.N,GND*
X120690000Y-88460000D03*
G04 #@! TD*
D16*
G04 #@! TO.P,R1,1*
G04 #@! TO.N,+3.3V*
X159810000Y-61250000D03*
G04 #@! TO.P,R1,2*
G04 #@! TO.N,/DHT11 DATA*
X152190000Y-61250000D03*
G04 #@! TD*
D11*
G04 #@! TO.P,J1,1,Pin_1_1*
G04 #@! TO.N,+3.3V*
X179500000Y-102800000D03*
D17*
G04 #@! TO.P,J1,2,Pin_2_2*
G04 #@! TO.N,GND*
X179500000Y-105340000D03*
G04 #@! TO.P,J1,3,Pin_3_3*
G04 #@! TO.N,/SCL*
X179500000Y-107880000D03*
G04 #@! TO.P,J1,4,Pin_4_4*
G04 #@! TO.N,/SDA*
X179500000Y-110420000D03*
G04 #@! TO.P,J1,5,Pin_5_5*
G04 #@! TO.N,unconnected-(J1-Pin_5-Pad5)*
X179500000Y-112960000D03*
G04 #@! TO.P,J1,6,Pin_6_6*
G04 #@! TO.N,unconnected-(J1-Pin_6-Pad6)*
X179500000Y-115500000D03*
G04 #@! TO.P,J1,7,Pin_7_7*
G04 #@! TO.N,unconnected-(J1-Pin_7-Pad7)*
X179500000Y-118040000D03*
G04 #@! TO.P,J1,8,Pin_8_8*
G04 #@! TO.N,unconnected-(J1-Pin_8-Pad8)*
X179500000Y-120580000D03*
G04 #@! TD*
D18*
G04 #@! TO.P,U1,1,VDD_1*
G04 #@! TO.N,+3.3V*
X159790000Y-67250000D03*
D19*
G04 #@! TO.P,U1,2,DATA_2*
G04 #@! TO.N,/DHT11 DATA*
X157250000Y-67250000D03*
G04 #@! TO.P,U1,3,NC_3*
G04 #@! TO.N,unconnected-(U1-NC-Pad3)*
X154710000Y-67250000D03*
G04 #@! TO.P,U1,4,GND_4*
G04 #@! TO.N,GND*
X152170000Y-67250000D03*
G04 #@! TD*
D20*
G04 #@! TO.N,GND*
X156250000Y-57250000D03*
X166500000Y-68250000D03*
G04 #@! TD*
G04 #@! TO.N,/SDA*
D21*
X183500000Y-110000000D02*
X183500000Y-94250000D01*
X183080000Y-110420000D02*
X183500000Y-110000000D01*
X179500000Y-110420000D02*
X183080000Y-110420000D01*
X183500000Y-94250000D02*
X182710000Y-93460000D01*
X182710000Y-93460000D02*
X177500000Y-93460000D01*
G04 #@! TO.N,/SCL*
X176422370Y-90920000D02*
X177500000Y-90920000D01*
X175149000Y-92193370D02*
X176422370Y-90920000D01*
X175149000Y-96801214D02*
X175149000Y-92193370D01*
X179997786Y-101650000D02*
X175149000Y-96801214D01*
X180650000Y-101650000D02*
X179997786Y-101650000D01*
X182250000Y-103250000D02*
X180650000Y-101650000D01*
X182250000Y-105750000D02*
X182250000Y-103250000D01*
X180120000Y-107880000D02*
X182250000Y-105750000D01*
X179500000Y-107880000D02*
X180120000Y-107880000D01*
G04 #@! TO.N,/GPIO3*
X122370000Y-114670000D02*
X148660000Y-88380000D01*
X148660000Y-88380000D02*
X176665000Y-88380000D01*
G04 #@! TO.N,GND*
X120540000Y-88460000D02*
X120500000Y-88500000D01*
G04 #@! TO.N,/GPIO2*
X176585000Y-85920000D02*
X176665000Y-85840000D01*
X127040000Y-85920000D02*
X176585000Y-85920000D01*
G04 #@! TO.N,+3.3V*
X159810000Y-67230000D02*
X159790000Y-67250000D01*
X159810000Y-61250000D02*
X159810000Y-67230000D01*
G04 #@! TO.N,/SCL*
X155096000Y-97000000D02*
X165976000Y-107880000D01*
X176665000Y-90920000D02*
X177500000Y-90920000D01*
X165976000Y-107880000D02*
X179500000Y-107880000D01*
G04 #@! TO.N,/SDA*
X165976000Y-110420000D02*
X179500000Y-110420000D01*
X152556000Y-97000000D02*
X165976000Y-110420000D01*
G04 #@! TO.N,/DHT11 DATA*
X173300000Y-83300000D02*
X176665000Y-83300000D01*
X152190000Y-61250000D02*
X157250000Y-66310000D01*
X157250000Y-66310000D02*
X157250000Y-67250000D01*
X157250000Y-67250000D02*
X173300000Y-83300000D01*
G04 #@! TD*
G04 #@! TA.AperFunction,Conductor*
G04 #@! TO.N,GND*
G36*
X151259414Y-60270185D02*
G01*
X151305169Y-60322989D01*
X151315113Y-60392147D01*
X151286088Y-60455703D01*
X151280056Y-60462181D01*
X151274312Y-60467924D01*
X151274312Y-60467925D01*
X151274310Y-60467927D01*
X151226610Y-60533579D01*
X151163240Y-60620800D01*
X151077454Y-60789163D01*
X151019059Y-60968881D01*
X150989500Y-61155513D01*
X150989500Y-61344486D01*
X151019059Y-61531118D01*
X151077454Y-61710836D01*
X151163240Y-61879199D01*
X151274310Y-62032073D01*
X151407927Y-62165690D01*
X151560801Y-62276760D01*
X151594150Y-62293752D01*
X151729163Y-62362545D01*
X151729165Y-62362545D01*
X151729168Y-62362547D01*
X151825497Y-62393846D01*
X151908881Y-62420940D01*
X152095514Y-62450500D01*
X152095519Y-62450500D01*
X152284486Y-62450500D01*
X152401017Y-62432042D01*
X152443753Y-62425274D01*
X152513045Y-62434228D01*
X152550831Y-62460066D01*
X156323464Y-66232699D01*
X156356949Y-66294022D01*
X156351965Y-66363714D01*
X156323466Y-66408060D01*
X156296172Y-66435354D01*
X156180476Y-66594594D01*
X156090485Y-66771213D01*
X156042511Y-66822009D01*
X155974690Y-66838804D01*
X155908555Y-66816267D01*
X155869515Y-66771213D01*
X155801879Y-66638470D01*
X155779524Y-66594595D01*
X155663828Y-66435354D01*
X155524646Y-66296172D01*
X155365405Y-66180476D01*
X155190029Y-66091117D01*
X155002826Y-66030290D01*
X154808422Y-65999500D01*
X154808417Y-65999500D01*
X154611583Y-65999500D01*
X154611578Y-65999500D01*
X154417173Y-66030290D01*
X154229970Y-66091117D01*
X154054594Y-66180476D01*
X153963741Y-66246485D01*
X153895354Y-66296172D01*
X153895352Y-66296174D01*
X153895351Y-66296174D01*
X153756174Y-66435351D01*
X153756174Y-66435352D01*
X153756172Y-66435354D01*
X153743980Y-66452135D01*
X153640476Y-66594594D01*
X153550204Y-66771764D01*
X153502229Y-66822560D01*
X153434408Y-66839355D01*
X153368274Y-66816818D01*
X153329234Y-66771764D01*
X153239096Y-66594858D01*
X153213678Y-66559873D01*
X153213677Y-66559873D01*
X152570000Y-67203551D01*
X152570000Y-67197339D01*
X152542741Y-67095606D01*
X152490080Y-67004394D01*
X152415606Y-66929920D01*
X152324394Y-66877259D01*
X152222661Y-66850000D01*
X152216447Y-66850000D01*
X152860125Y-66206320D01*
X152860125Y-66206319D01*
X152825145Y-66180905D01*
X152649835Y-66091581D01*
X152462705Y-66030778D01*
X152268382Y-66000000D01*
X152071618Y-66000000D01*
X151877294Y-66030778D01*
X151690161Y-66091582D01*
X151514863Y-66180899D01*
X151514859Y-66180902D01*
X151479873Y-66206320D01*
X151479872Y-66206320D01*
X152123554Y-66850000D01*
X152117339Y-66850000D01*
X152015606Y-66877259D01*
X151924394Y-66929920D01*
X151849920Y-67004394D01*
X151797259Y-67095606D01*
X151770000Y-67197339D01*
X151770000Y-67203552D01*
X151126320Y-66559872D01*
X151126320Y-66559873D01*
X151100902Y-66594859D01*
X151100899Y-66594863D01*
X151011582Y-66770161D01*
X150950778Y-66957294D01*
X150920000Y-67151617D01*
X150920000Y-67348382D01*
X150950778Y-67542705D01*
X151011581Y-67729835D01*
X151100905Y-67905145D01*
X151126319Y-67940125D01*
X151126320Y-67940125D01*
X151770000Y-67296445D01*
X151770000Y-67302661D01*
X151797259Y-67404394D01*
X151849920Y-67495606D01*
X151924394Y-67570080D01*
X152015606Y-67622741D01*
X152117339Y-67650000D01*
X152123553Y-67650000D01*
X151479873Y-68293677D01*
X151479873Y-68293678D01*
X151514858Y-68319096D01*
X151690164Y-68408418D01*
X151877294Y-68469221D01*
X152071618Y-68500000D01*
X152268382Y-68500000D01*
X152462705Y-68469221D01*
X152649835Y-68408418D01*
X152825143Y-68319095D01*
X152860125Y-68293678D01*
X152860126Y-68293678D01*
X152216448Y-67650000D01*
X152222661Y-67650000D01*
X152324394Y-67622741D01*
X152415606Y-67570080D01*
X152490080Y-67495606D01*
X152542741Y-67404394D01*
X152570000Y-67302661D01*
X152570000Y-67296448D01*
X153213678Y-67940126D01*
X153213678Y-67940125D01*
X153239097Y-67905141D01*
X153329234Y-67728236D01*
X153377208Y-67677439D01*
X153445029Y-67660644D01*
X153511164Y-67683181D01*
X153550204Y-67728235D01*
X153551115Y-67730024D01*
X153551116Y-67730025D01*
X153640476Y-67905405D01*
X153756172Y-68064646D01*
X153895354Y-68203828D01*
X154054595Y-68319524D01*
X154129214Y-68357544D01*
X154229970Y-68408882D01*
X154229972Y-68408882D01*
X154229975Y-68408884D01*
X154330317Y-68441487D01*
X154417173Y-68469709D01*
X154611578Y-68500500D01*
X154611583Y-68500500D01*
X154808422Y-68500500D01*
X155002826Y-68469709D01*
X155005082Y-68468976D01*
X155190025Y-68408884D01*
X155365405Y-68319524D01*
X155524646Y-68203828D01*
X155663828Y-68064646D01*
X155779524Y-67905405D01*
X155868884Y-67730025D01*
X155869515Y-67728787D01*
X155917489Y-67677990D01*
X155985310Y-67661195D01*
X156051445Y-67683732D01*
X156090485Y-67728787D01*
X156180474Y-67905403D01*
X156205702Y-67940125D01*
X156296172Y-68064646D01*
X156435354Y-68203828D01*
X156594595Y-68319524D01*
X156669214Y-68357544D01*
X156769970Y-68408882D01*
X156769972Y-68408882D01*
X156769975Y-68408884D01*
X156870317Y-68441487D01*
X156957173Y-68469709D01*
X157151578Y-68500500D01*
X157151583Y-68500500D01*
X157348422Y-68500500D01*
X157547454Y-68468976D01*
X157616747Y-68477930D01*
X157654532Y-68503767D01*
X172931284Y-83780520D01*
X172931286Y-83780521D01*
X172931290Y-83780524D01*
X173068209Y-83859573D01*
X173068216Y-83859577D01*
X173220943Y-83900501D01*
X173220945Y-83900501D01*
X173386654Y-83900501D01*
X173386670Y-83900500D01*
X174827970Y-83900500D01*
X174895009Y-83920185D01*
X174940764Y-83972989D01*
X174949435Y-84006465D01*
X174950274Y-84006312D01*
X174951413Y-84012552D01*
X174997434Y-84170954D01*
X174997435Y-84170957D01*
X175081405Y-84312943D01*
X175081412Y-84312952D01*
X175198047Y-84429587D01*
X175198050Y-84429589D01*
X175198053Y-84429592D01*
X175254502Y-84462976D01*
X175254996Y-84463268D01*
X175302679Y-84514338D01*
X175315182Y-84583079D01*
X175288536Y-84647669D01*
X175254996Y-84676732D01*
X175198053Y-84710408D01*
X175198047Y-84710412D01*
X175081412Y-84827047D01*
X175081405Y-84827056D01*
X174997435Y-84969042D01*
X174997434Y-84969045D01*
X174951413Y-85127447D01*
X174951412Y-85127453D01*
X174948500Y-85164458D01*
X174948500Y-85195500D01*
X174928815Y-85262539D01*
X174876011Y-85308294D01*
X174824500Y-85319500D01*
X128606300Y-85319500D01*
X128539261Y-85299815D01*
X128495815Y-85251795D01*
X128408870Y-85081155D01*
X128327418Y-84969045D01*
X128260798Y-84877350D01*
X128260794Y-84877345D01*
X128082654Y-84699205D01*
X128082649Y-84699201D01*
X127878848Y-84551132D01*
X127878847Y-84551131D01*
X127878845Y-84551130D01*
X127806063Y-84514046D01*
X127654383Y-84436760D01*
X127414785Y-84358910D01*
X127210126Y-84326495D01*
X127165962Y-84319500D01*
X126914038Y-84319500D01*
X126869874Y-84326495D01*
X126665214Y-84358910D01*
X126425616Y-84436760D01*
X126201151Y-84551132D01*
X125997350Y-84699201D01*
X125997345Y-84699205D01*
X125819205Y-84877345D01*
X125819201Y-84877350D01*
X125671132Y-85081151D01*
X125556760Y-85305616D01*
X125478910Y-85545214D01*
X125439500Y-85794038D01*
X125439500Y-86045961D01*
X125478910Y-86294785D01*
X125556760Y-86534383D01*
X125671132Y-86758848D01*
X125819201Y-86962649D01*
X125819205Y-86962654D01*
X125997345Y-87140794D01*
X125997350Y-87140798D01*
X126061863Y-87187669D01*
X126201155Y-87288870D01*
X126328007Y-87353504D01*
X126425616Y-87403239D01*
X126425618Y-87403239D01*
X126425621Y-87403241D01*
X126665215Y-87481090D01*
X126914038Y-87520500D01*
X126914039Y-87520500D01*
X127165961Y-87520500D01*
X127165962Y-87520500D01*
X127414785Y-87481090D01*
X127654379Y-87403241D01*
X127878845Y-87288870D01*
X128082656Y-87140793D01*
X128260793Y-86962656D01*
X128408870Y-86758845D01*
X128495815Y-86588204D01*
X128543789Y-86537409D01*
X128606300Y-86520500D01*
X174849000Y-86520500D01*
X174916039Y-86540185D01*
X174961794Y-86592989D01*
X174968076Y-86609905D01*
X174997433Y-86710954D01*
X174997435Y-86710957D01*
X175081405Y-86852943D01*
X175081412Y-86852952D01*
X175198047Y-86969587D01*
X175198050Y-86969589D01*
X175198053Y-86969592D01*
X175254996Y-87003268D01*
X175302679Y-87054338D01*
X175315182Y-87123079D01*
X175288536Y-87187669D01*
X175254996Y-87216732D01*
X175198053Y-87250408D01*
X175198047Y-87250412D01*
X175081412Y-87367047D01*
X175081405Y-87367056D01*
X174997435Y-87509042D01*
X174997434Y-87509045D01*
X174951413Y-87667447D01*
X174950274Y-87673688D01*
X174948487Y-87673361D01*
X174926706Y-87730514D01*
X174870476Y-87771987D01*
X174827970Y-87779500D01*
X148746670Y-87779500D01*
X148746654Y-87779499D01*
X148739058Y-87779499D01*
X148580943Y-87779499D01*
X148521754Y-87795359D01*
X148428214Y-87820423D01*
X148428209Y-87820426D01*
X148291290Y-87899475D01*
X148291282Y-87899481D01*
X123052923Y-113137840D01*
X122991600Y-113171325D01*
X122926924Y-113168090D01*
X122744787Y-113108910D01*
X122578903Y-113082636D01*
X122495962Y-113069500D01*
X122244038Y-113069500D01*
X122119626Y-113089205D01*
X121995214Y-113108910D01*
X121755616Y-113186760D01*
X121531151Y-113301132D01*
X121327350Y-113449201D01*
X121327345Y-113449205D01*
X121149205Y-113627345D01*
X121149201Y-113627350D01*
X121001132Y-113831151D01*
X120886760Y-114055616D01*
X120808910Y-114295214D01*
X120769500Y-114544038D01*
X120769500Y-114795961D01*
X120808910Y-115044785D01*
X120886760Y-115284383D01*
X121001132Y-115508848D01*
X121149201Y-115712649D01*
X121149205Y-115712654D01*
X121327345Y-115890794D01*
X121327350Y-115890798D01*
X121502997Y-116018412D01*
X121531155Y-116038870D01*
X121674184Y-116111747D01*
X121755616Y-116153239D01*
X121755618Y-116153239D01*
X121755621Y-116153241D01*
X121995215Y-116231090D01*
X122244038Y-116270500D01*
X122244039Y-116270500D01*
X122495961Y-116270500D01*
X122495962Y-116270500D01*
X122744785Y-116231090D01*
X122984379Y-116153241D01*
X123208845Y-116038870D01*
X123412656Y-115890793D01*
X123590793Y-115712656D01*
X123738870Y-115508845D01*
X123853241Y-115284379D01*
X123931090Y-115044785D01*
X123970500Y-114795962D01*
X123970500Y-114544038D01*
X123931090Y-114295215D01*
X123931089Y-114295211D01*
X123931089Y-114295210D01*
X123871909Y-114113073D01*
X123869914Y-114043232D01*
X123902157Y-113987076D01*
X141652086Y-96237149D01*
X142789500Y-96237149D01*
X142789500Y-96492850D01*
X142811730Y-96661694D01*
X142822874Y-96746340D01*
X142889050Y-96993312D01*
X142889053Y-96993322D01*
X142986894Y-97229531D01*
X142986899Y-97229542D01*
X143114734Y-97450957D01*
X143114745Y-97450973D01*
X143270388Y-97653811D01*
X143270394Y-97653818D01*
X143451181Y-97834605D01*
X143451187Y-97834610D01*
X143654035Y-97990261D01*
X143654042Y-97990265D01*
X143875457Y-98118100D01*
X143875462Y-98118102D01*
X143875465Y-98118104D01*
X144111687Y-98215950D01*
X144358660Y-98282126D01*
X144612157Y-98315500D01*
X144612164Y-98315500D01*
X145767836Y-98315500D01*
X145767843Y-98315500D01*
X146021340Y-98282126D01*
X146268313Y-98215950D01*
X146504535Y-98118104D01*
X146725965Y-97990261D01*
X146928813Y-97834610D01*
X147109610Y-97653813D01*
X147265261Y-97450965D01*
X147393104Y-97229535D01*
X147490950Y-96993313D01*
X147557126Y-96746340D01*
X147590500Y-96492843D01*
X147590500Y-96237157D01*
X147557126Y-95983660D01*
X147490950Y-95736687D01*
X147490947Y-95736679D01*
X147490946Y-95736676D01*
X147399277Y-95515368D01*
X147393104Y-95500465D01*
X147393102Y-95500462D01*
X147393100Y-95500457D01*
X147265265Y-95279042D01*
X147265261Y-95279035D01*
X147187376Y-95177533D01*
X147109611Y-95076188D01*
X147109605Y-95076181D01*
X146928818Y-94895394D01*
X146928811Y-94895388D01*
X146725973Y-94739745D01*
X146725971Y-94739743D01*
X146725965Y-94739739D01*
X146725960Y-94739736D01*
X146725957Y-94739734D01*
X146504542Y-94611899D01*
X146504531Y-94611894D01*
X146268322Y-94514053D01*
X146268315Y-94514051D01*
X146268313Y-94514050D01*
X146021340Y-94447874D01*
X145965007Y-94440457D01*
X145767850Y-94414500D01*
X145767843Y-94414500D01*
X144612157Y-94414500D01*
X144612149Y-94414500D01*
X144386826Y-94444165D01*
X144358660Y-94447874D01*
X144235935Y-94480758D01*
X144111687Y-94514050D01*
X144111677Y-94514053D01*
X143875468Y-94611894D01*
X143875457Y-94611899D01*
X143654042Y-94739734D01*
X143654026Y-94739745D01*
X143451188Y-94895388D01*
X143451181Y-94895394D01*
X143270394Y-95076181D01*
X143270388Y-95076188D01*
X143114745Y-95279026D01*
X143114734Y-95279042D01*
X142986899Y-95500457D01*
X142986894Y-95500468D01*
X142889054Y-95736676D01*
X142889050Y-95736687D01*
X142845120Y-95900639D01*
X142822874Y-95983661D01*
X142789500Y-96237149D01*
X141652086Y-96237149D01*
X148872417Y-89016819D01*
X148933740Y-88983334D01*
X148960098Y-88980500D01*
X174827970Y-88980500D01*
X174895009Y-89000185D01*
X174940764Y-89052989D01*
X174949435Y-89086465D01*
X174950274Y-89086312D01*
X174951413Y-89092552D01*
X174997434Y-89250954D01*
X174997435Y-89250957D01*
X175081405Y-89392943D01*
X175081412Y-89392952D01*
X175198047Y-89509587D01*
X175198050Y-89509589D01*
X175198053Y-89509592D01*
X175254996Y-89543268D01*
X175302679Y-89594338D01*
X175315182Y-89663079D01*
X175288536Y-89727669D01*
X175254996Y-89756732D01*
X175198053Y-89790408D01*
X175198047Y-89790412D01*
X175081412Y-89907047D01*
X175081405Y-89907056D01*
X174997435Y-90049042D01*
X174997434Y-90049045D01*
X174951413Y-90207447D01*
X174951412Y-90207453D01*
X174948500Y-90244458D01*
X174948500Y-91493272D01*
X174928815Y-91560311D01*
X174912181Y-91580953D01*
X174668481Y-91824652D01*
X174668480Y-91824654D01*
X174634804Y-91882984D01*
X174618361Y-91911464D01*
X174618359Y-91911466D01*
X174589425Y-91961579D01*
X174589424Y-91961580D01*
X174579797Y-91997510D01*
X174548499Y-92114313D01*
X174548499Y-92114315D01*
X174548499Y-92282416D01*
X174548500Y-92282429D01*
X174548500Y-96714544D01*
X174548499Y-96714562D01*
X174548499Y-96880268D01*
X174548498Y-96880268D01*
X174589423Y-97033000D01*
X174603171Y-97056810D01*
X174603172Y-97056815D01*
X174603174Y-97056815D01*
X174631736Y-97106287D01*
X174668479Y-97169928D01*
X174668481Y-97169931D01*
X174787349Y-97288799D01*
X174787355Y-97288804D01*
X178736370Y-101237819D01*
X178769855Y-101299142D01*
X178764871Y-101368834D01*
X178722999Y-101424767D01*
X178657535Y-101449184D01*
X178648691Y-101449500D01*
X178602131Y-101449500D01*
X178602123Y-101449501D01*
X178542516Y-101455908D01*
X178407671Y-101506202D01*
X178407664Y-101506206D01*
X178292455Y-101592452D01*
X178292452Y-101592455D01*
X178206206Y-101707664D01*
X178206202Y-101707671D01*
X178155908Y-101842517D01*
X178149501Y-101902116D01*
X178149500Y-101902135D01*
X178149500Y-103697870D01*
X178149501Y-103697876D01*
X178155908Y-103757483D01*
X178206202Y-103892328D01*
X178206206Y-103892335D01*
X178292452Y-104007544D01*
X178292455Y-104007547D01*
X178407664Y-104093793D01*
X178407671Y-104093797D01*
X178452618Y-104110561D01*
X178542517Y-104144091D01*
X178602127Y-104150500D01*
X178612685Y-104150499D01*
X178679723Y-104170179D01*
X178700372Y-104186818D01*
X179370591Y-104857037D01*
X179307007Y-104874075D01*
X179192993Y-104939901D01*
X179099901Y-105032993D01*
X179034075Y-105147007D01*
X179017037Y-105210591D01*
X178384728Y-104578282D01*
X178384727Y-104578282D01*
X178345380Y-104632439D01*
X178248904Y-104821782D01*
X178183242Y-105023869D01*
X178183242Y-105023872D01*
X178150000Y-105233753D01*
X178150000Y-105446246D01*
X178183242Y-105656127D01*
X178183242Y-105656130D01*
X178248904Y-105858217D01*
X178345375Y-106047550D01*
X178384728Y-106101716D01*
X179017037Y-105469408D01*
X179034075Y-105532993D01*
X179099901Y-105647007D01*
X179192993Y-105740099D01*
X179307007Y-105805925D01*
X179370590Y-105822962D01*
X178738282Y-106455269D01*
X178738282Y-106455270D01*
X178792452Y-106494626D01*
X178792451Y-106494626D01*
X178801495Y-106499234D01*
X178852292Y-106547208D01*
X178869087Y-106615029D01*
X178846550Y-106681164D01*
X178801499Y-106720202D01*
X178792182Y-106724949D01*
X178620213Y-106849890D01*
X178469890Y-107000213D01*
X178344948Y-107172184D01*
X178344947Y-107172185D01*
X178324765Y-107211795D01*
X178276791Y-107262591D01*
X178214281Y-107279500D01*
X166276098Y-107279500D01*
X166209059Y-107259815D01*
X166188417Y-107243181D01*
X164261798Y-105316562D01*
X157507416Y-98562181D01*
X157473931Y-98500858D01*
X157478915Y-98431166D01*
X157520787Y-98375233D01*
X157586251Y-98350816D01*
X157595097Y-98350500D01*
X157742286Y-98350500D01*
X157742287Y-98350500D01*
X157952243Y-98317246D01*
X158154412Y-98251557D01*
X158343816Y-98155051D01*
X158430478Y-98092088D01*
X158515784Y-98030110D01*
X158515784Y-98030109D01*
X158515792Y-98030104D01*
X158629717Y-97916178D01*
X158691036Y-97882696D01*
X158760728Y-97887680D01*
X158816662Y-97929551D01*
X158833577Y-97960528D01*
X158882646Y-98092088D01*
X158882649Y-98092093D01*
X158968809Y-98207187D01*
X158968812Y-98207190D01*
X159083906Y-98293350D01*
X159083913Y-98293354D01*
X159218620Y-98343596D01*
X159218627Y-98343598D01*
X159278155Y-98349999D01*
X159278172Y-98350000D01*
X159926000Y-98350000D01*
X159926000Y-97433012D01*
X159983007Y-97465925D01*
X160110174Y-97500000D01*
X160241826Y-97500000D01*
X160368993Y-97465925D01*
X160426000Y-97433012D01*
X160426000Y-98350000D01*
X161073828Y-98350000D01*
X161073844Y-98349999D01*
X161133372Y-98343598D01*
X161133379Y-98343596D01*
X161268086Y-98293354D01*
X161268093Y-98293350D01*
X161383187Y-98207190D01*
X161383190Y-98207187D01*
X161469350Y-98092093D01*
X161469354Y-98092086D01*
X161519596Y-97957379D01*
X161519598Y-97957372D01*
X161525999Y-97897844D01*
X161526000Y-97897827D01*
X161526000Y-97250000D01*
X160609012Y-97250000D01*
X160641925Y-97192993D01*
X160676000Y-97065826D01*
X160676000Y-96934174D01*
X160641925Y-96807007D01*
X160609012Y-96750000D01*
X161526000Y-96750000D01*
X161526000Y-96237149D01*
X165141500Y-96237149D01*
X165141500Y-96492850D01*
X165163730Y-96661694D01*
X165174874Y-96746340D01*
X165241050Y-96993312D01*
X165241053Y-96993322D01*
X165338894Y-97229531D01*
X165338899Y-97229542D01*
X165466734Y-97450957D01*
X165466745Y-97450973D01*
X165622388Y-97653811D01*
X165622394Y-97653818D01*
X165803181Y-97834605D01*
X165803187Y-97834610D01*
X166006035Y-97990261D01*
X166006042Y-97990265D01*
X166227457Y-98118100D01*
X166227462Y-98118102D01*
X166227465Y-98118104D01*
X166463687Y-98215950D01*
X166710660Y-98282126D01*
X166964157Y-98315500D01*
X166964164Y-98315500D01*
X168119836Y-98315500D01*
X168119843Y-98315500D01*
X168373340Y-98282126D01*
X168620313Y-98215950D01*
X168856535Y-98118104D01*
X169077965Y-97990261D01*
X169280813Y-97834610D01*
X169461610Y-97653813D01*
X169617261Y-97450965D01*
X169745104Y-97229535D01*
X169842950Y-96993313D01*
X169909126Y-96746340D01*
X169942500Y-96492843D01*
X169942500Y-96237157D01*
X169909126Y-95983660D01*
X169842950Y-95736687D01*
X169842947Y-95736679D01*
X169842946Y-95736676D01*
X169751277Y-95515368D01*
X169745104Y-95500465D01*
X169745102Y-95500462D01*
X169745100Y-95500457D01*
X169617265Y-95279042D01*
X169617261Y-95279035D01*
X169539376Y-95177533D01*
X169461611Y-95076188D01*
X169461605Y-95076181D01*
X169280818Y-94895394D01*
X169280811Y-94895388D01*
X169077973Y-94739745D01*
X169077971Y-94739743D01*
X169077965Y-94739739D01*
X169077960Y-94739736D01*
X169077957Y-94739734D01*
X168856542Y-94611899D01*
X168856531Y-94611894D01*
X168620322Y-94514053D01*
X168620315Y-94514051D01*
X168620313Y-94514050D01*
X168373340Y-94447874D01*
X168317007Y-94440457D01*
X168119850Y-94414500D01*
X168119843Y-94414500D01*
X166964157Y-94414500D01*
X166964149Y-94414500D01*
X166738826Y-94444165D01*
X166710660Y-94447874D01*
X166587935Y-94480758D01*
X166463687Y-94514050D01*
X166463677Y-94514053D01*
X166227468Y-94611894D01*
X166227457Y-94611899D01*
X166006042Y-94739734D01*
X166006026Y-94739745D01*
X165803188Y-94895388D01*
X165803181Y-94895394D01*
X165622394Y-95076181D01*
X165622388Y-95076188D01*
X165466745Y-95279026D01*
X165466734Y-95279042D01*
X165338899Y-95500457D01*
X165338894Y-95500468D01*
X165241054Y-95736676D01*
X165241050Y-95736687D01*
X165197120Y-95900639D01*
X165174874Y-95983661D01*
X165141500Y-96237149D01*
X161526000Y-96237149D01*
X161526000Y-96102172D01*
X161525999Y-96102155D01*
X161519598Y-96042627D01*
X161519596Y-96042620D01*
X161469354Y-95907913D01*
X161469350Y-95907906D01*
X161383190Y-95792812D01*
X161383187Y-95792809D01*
X161268093Y-95706649D01*
X161268086Y-95706645D01*
X161133379Y-95656403D01*
X161133372Y-95656401D01*
X161073844Y-95650000D01*
X160426000Y-95650000D01*
X160426000Y-96566988D01*
X160368993Y-96534075D01*
X160241826Y-96500000D01*
X160110174Y-96500000D01*
X159983007Y-96534075D01*
X159926000Y-96566988D01*
X159926000Y-95650000D01*
X159278155Y-95650000D01*
X159218627Y-95656401D01*
X159218620Y-95656403D01*
X159083913Y-95706645D01*
X159083906Y-95706649D01*
X158968812Y-95792809D01*
X158968809Y-95792812D01*
X158882649Y-95907906D01*
X158882646Y-95907912D01*
X158833577Y-96039471D01*
X158791705Y-96095404D01*
X158726241Y-96119821D01*
X158657968Y-96104969D01*
X158629714Y-96083818D01*
X158515786Y-95969890D01*
X158343820Y-95844951D01*
X158154414Y-95748444D01*
X158154413Y-95748443D01*
X158154412Y-95748443D01*
X157952243Y-95682754D01*
X157952241Y-95682753D01*
X157952240Y-95682753D01*
X157790957Y-95657208D01*
X157742287Y-95649500D01*
X157529713Y-95649500D01*
X157481042Y-95657208D01*
X157319760Y-95682753D01*
X157117585Y-95748444D01*
X156928179Y-95844951D01*
X156756213Y-95969890D01*
X156605890Y-96120213D01*
X156480949Y-96292182D01*
X156476484Y-96300946D01*
X156428509Y-96351742D01*
X156360688Y-96368536D01*
X156294553Y-96345998D01*
X156255516Y-96300946D01*
X156251050Y-96292182D01*
X156126109Y-96120213D01*
X155975786Y-95969890D01*
X155803820Y-95844951D01*
X155614414Y-95748444D01*
X155614413Y-95748443D01*
X155614412Y-95748443D01*
X155412243Y-95682754D01*
X155412241Y-95682753D01*
X155412240Y-95682753D01*
X155250957Y-95657208D01*
X155202287Y-95649500D01*
X154989713Y-95649500D01*
X154941042Y-95657208D01*
X154779760Y-95682753D01*
X154577585Y-95748444D01*
X154388179Y-95844951D01*
X154216213Y-95969890D01*
X154065890Y-96120213D01*
X153940949Y-96292182D01*
X153936484Y-96300946D01*
X153888509Y-96351742D01*
X153820688Y-96368536D01*
X153754553Y-96345998D01*
X153715516Y-96300946D01*
X153711050Y-96292182D01*
X153586109Y-96120213D01*
X153435786Y-95969890D01*
X153263820Y-95844951D01*
X153074414Y-95748444D01*
X153074413Y-95748443D01*
X153074412Y-95748443D01*
X152872243Y-95682754D01*
X152872241Y-95682753D01*
X152872240Y-95682753D01*
X152710957Y-95657208D01*
X152662287Y-95649500D01*
X152449713Y-95649500D01*
X152401042Y-95657208D01*
X152239760Y-95682753D01*
X152037585Y-95748444D01*
X151848179Y-95844951D01*
X151676213Y-95969890D01*
X151525890Y-96120213D01*
X151400951Y-96292179D01*
X151304444Y-96481585D01*
X151238753Y-96683760D01*
X151228262Y-96750000D01*
X151205500Y-96893713D01*
X151205500Y-97106287D01*
X151209192Y-97129595D01*
X151230241Y-97262499D01*
X151238754Y-97316243D01*
X151290071Y-97474181D01*
X151304444Y-97518414D01*
X151400951Y-97707820D01*
X151525890Y-97879786D01*
X151676213Y-98030109D01*
X151848179Y-98155048D01*
X151848181Y-98155049D01*
X151848184Y-98155051D01*
X152037588Y-98251557D01*
X152239757Y-98317246D01*
X152449713Y-98350500D01*
X152449714Y-98350500D01*
X152662286Y-98350500D01*
X152662287Y-98350500D01*
X152872243Y-98317246D01*
X152914523Y-98303507D01*
X152984362Y-98301511D01*
X153040522Y-98333757D01*
X165491139Y-110784374D01*
X165491149Y-110784385D01*
X165495479Y-110788715D01*
X165495480Y-110788716D01*
X165607284Y-110900520D01*
X165694095Y-110950639D01*
X165694097Y-110950641D01*
X165732151Y-110972611D01*
X165744215Y-110979577D01*
X165896943Y-111020501D01*
X165896946Y-111020501D01*
X166062653Y-111020501D01*
X166062669Y-111020500D01*
X178214281Y-111020500D01*
X178281320Y-111040185D01*
X178324765Y-111088205D01*
X178344947Y-111127814D01*
X178344948Y-111127815D01*
X178469890Y-111299786D01*
X178620213Y-111450109D01*
X178792182Y-111575050D01*
X178800946Y-111579516D01*
X178851742Y-111627491D01*
X178868536Y-111695312D01*
X178845998Y-111761447D01*
X178800946Y-111800484D01*
X178792182Y-111804949D01*
X178620213Y-111929890D01*
X178469890Y-112080213D01*
X178344951Y-112252179D01*
X178248444Y-112441585D01*
X178182753Y-112643760D01*
X178149500Y-112853713D01*
X178149500Y-113066286D01*
X178166136Y-113171325D01*
X178182754Y-113276243D01*
X178190840Y-113301130D01*
X178248444Y-113478414D01*
X178344951Y-113667820D01*
X178469890Y-113839786D01*
X178620213Y-113990109D01*
X178792182Y-114115050D01*
X178800946Y-114119516D01*
X178851742Y-114167491D01*
X178868536Y-114235312D01*
X178845998Y-114301447D01*
X178800946Y-114340484D01*
X178792182Y-114344949D01*
X178620213Y-114469890D01*
X178469890Y-114620213D01*
X178344951Y-114792179D01*
X178248444Y-114981585D01*
X178182753Y-115183760D01*
X178182698Y-115184108D01*
X178149500Y-115393713D01*
X178149500Y-115606287D01*
X178182754Y-115816243D01*
X178215085Y-115915748D01*
X178248444Y-116018414D01*
X178344951Y-116207820D01*
X178469890Y-116379786D01*
X178620213Y-116530109D01*
X178792182Y-116655050D01*
X178800946Y-116659516D01*
X178851742Y-116707491D01*
X178868536Y-116775312D01*
X178845998Y-116841447D01*
X178800946Y-116880484D01*
X178792182Y-116884949D01*
X178620213Y-117009890D01*
X178469890Y-117160213D01*
X178344951Y-117332179D01*
X178248444Y-117521585D01*
X178182753Y-117723760D01*
X178182199Y-117727258D01*
X178149500Y-117933713D01*
X178149500Y-118146287D01*
X178150199Y-118150698D01*
X178182753Y-118356239D01*
X178248444Y-118558414D01*
X178344951Y-118747820D01*
X178469890Y-118919786D01*
X178620213Y-119070109D01*
X178792182Y-119195050D01*
X178800946Y-119199516D01*
X178851742Y-119247491D01*
X178868536Y-119315312D01*
X178845998Y-119381447D01*
X178800946Y-119420484D01*
X178792182Y-119424949D01*
X178620213Y-119549890D01*
X178469890Y-119700213D01*
X178344951Y-119872179D01*
X178248444Y-120061585D01*
X178182753Y-120263760D01*
X178155773Y-120434108D01*
X178149500Y-120473713D01*
X178149500Y-120686287D01*
X178182754Y-120896243D01*
X178223025Y-121020185D01*
X178248444Y-121098414D01*
X178344951Y-121287820D01*
X178469890Y-121459786D01*
X178620213Y-121610109D01*
X178792179Y-121735048D01*
X178792181Y-121735049D01*
X178792184Y-121735051D01*
X178981588Y-121831557D01*
X179183757Y-121897246D01*
X179393713Y-121930500D01*
X179393714Y-121930500D01*
X179606286Y-121930500D01*
X179606287Y-121930500D01*
X179816243Y-121897246D01*
X180018412Y-121831557D01*
X180207816Y-121735051D01*
X180358962Y-121625238D01*
X180379786Y-121610109D01*
X180379788Y-121610106D01*
X180379792Y-121610104D01*
X180530104Y-121459792D01*
X180530106Y-121459788D01*
X180530109Y-121459786D01*
X180655048Y-121287820D01*
X180655047Y-121287820D01*
X180655051Y-121287816D01*
X180751557Y-121098412D01*
X180817246Y-120896243D01*
X180850500Y-120686287D01*
X180850500Y-120473713D01*
X180817246Y-120263757D01*
X180751557Y-120061588D01*
X180655051Y-119872184D01*
X180655049Y-119872181D01*
X180655048Y-119872179D01*
X180530109Y-119700213D01*
X180379786Y-119549890D01*
X180207820Y-119424951D01*
X180207115Y-119424591D01*
X180199054Y-119420485D01*
X180148259Y-119372512D01*
X180131463Y-119304692D01*
X180153999Y-119238556D01*
X180199054Y-119199515D01*
X180207816Y-119195051D01*
X180237876Y-119173211D01*
X180379786Y-119070109D01*
X180379788Y-119070106D01*
X180379792Y-119070104D01*
X180530104Y-118919792D01*
X180530106Y-118919788D01*
X180530109Y-118919786D01*
X180655048Y-118747820D01*
X180655047Y-118747820D01*
X180655051Y-118747816D01*
X180751557Y-118558412D01*
X180817246Y-118356243D01*
X180850500Y-118146287D01*
X180850500Y-117933713D01*
X180817246Y-117723757D01*
X180751557Y-117521588D01*
X180655051Y-117332184D01*
X180655049Y-117332181D01*
X180655048Y-117332179D01*
X180530109Y-117160213D01*
X180379786Y-117009890D01*
X180207820Y-116884951D01*
X180207115Y-116884591D01*
X180199054Y-116880485D01*
X180148259Y-116832512D01*
X180131463Y-116764692D01*
X180153999Y-116698556D01*
X180199054Y-116659515D01*
X180207816Y-116655051D01*
X180289348Y-116595815D01*
X180379786Y-116530109D01*
X180379788Y-116530106D01*
X180379792Y-116530104D01*
X180530104Y-116379792D01*
X180530106Y-116379788D01*
X180530109Y-116379786D01*
X180655048Y-116207820D01*
X180655047Y-116207820D01*
X180655051Y-116207816D01*
X180751557Y-116018412D01*
X180817246Y-115816243D01*
X180850500Y-115606287D01*
X180850500Y-115393713D01*
X180817246Y-115183757D01*
X180751557Y-114981588D01*
X180655051Y-114792184D01*
X180655049Y-114792181D01*
X180655048Y-114792179D01*
X180530109Y-114620213D01*
X180379786Y-114469890D01*
X180207820Y-114344951D01*
X180207115Y-114344591D01*
X180199054Y-114340485D01*
X180148259Y-114292512D01*
X180131463Y-114224692D01*
X180153999Y-114158556D01*
X180199054Y-114119515D01*
X180207816Y-114115051D01*
X180289622Y-114055616D01*
X180379786Y-113990109D01*
X180379788Y-113990106D01*
X180379792Y-113990104D01*
X180530104Y-113839792D01*
X180530106Y-113839788D01*
X180530109Y-113839786D01*
X180655048Y-113667820D01*
X180655047Y-113667820D01*
X180655051Y-113667816D01*
X180751557Y-113478412D01*
X180817246Y-113276243D01*
X180850500Y-113066287D01*
X180850500Y-112853713D01*
X180817246Y-112643757D01*
X180751557Y-112441588D01*
X180655051Y-112252184D01*
X180655049Y-112252181D01*
X180655048Y-112252179D01*
X180530109Y-112080213D01*
X180379786Y-111929890D01*
X180207820Y-111804951D01*
X180207115Y-111804591D01*
X180199054Y-111800485D01*
X180148259Y-111752512D01*
X180131463Y-111684692D01*
X180153999Y-111618556D01*
X180199054Y-111579515D01*
X180207816Y-111575051D01*
X180229789Y-111559086D01*
X180379786Y-111450109D01*
X180379788Y-111450106D01*
X180379792Y-111450104D01*
X180530104Y-111299792D01*
X180530106Y-111299788D01*
X180530109Y-111299786D01*
X180588661Y-111219193D01*
X180655051Y-111127816D01*
X180655349Y-111127230D01*
X180675235Y-111088205D01*
X180723209Y-111037409D01*
X180785719Y-111020500D01*
X182993331Y-111020500D01*
X182993347Y-111020501D01*
X183000943Y-111020501D01*
X183159054Y-111020501D01*
X183159057Y-111020501D01*
X183311785Y-110979577D01*
X183361904Y-110950639D01*
X183448716Y-110900520D01*
X183560520Y-110788716D01*
X183560521Y-110788714D01*
X183980520Y-110368716D01*
X184059577Y-110231784D01*
X184100501Y-110079057D01*
X184100501Y-109920942D01*
X184100501Y-109913347D01*
X184100500Y-109913329D01*
X184100500Y-94339060D01*
X184100501Y-94339047D01*
X184100501Y-94170944D01*
X184059576Y-94018214D01*
X184059573Y-94018209D01*
X183980524Y-93881290D01*
X183980518Y-93881282D01*
X183197590Y-93098355D01*
X183197588Y-93098352D01*
X183078717Y-92979481D01*
X183078716Y-92979480D01*
X182991904Y-92929360D01*
X182991904Y-92929359D01*
X182991900Y-92929358D01*
X182941785Y-92900423D01*
X182789057Y-92859499D01*
X182630943Y-92859499D01*
X182623347Y-92859499D01*
X182623331Y-92859500D01*
X178686730Y-92859500D01*
X178619691Y-92839815D01*
X178582808Y-92802133D01*
X178582651Y-92802248D01*
X178581872Y-92801176D01*
X178581000Y-92800285D01*
X178579789Y-92798309D01*
X178569737Y-92784473D01*
X178462981Y-92637536D01*
X178322464Y-92497019D01*
X178242937Y-92439239D01*
X178228147Y-92426608D01*
X178131947Y-92330408D01*
X178075003Y-92296731D01*
X178027321Y-92245663D01*
X178014817Y-92176921D01*
X178041462Y-92112332D01*
X178075004Y-92083268D01*
X178131947Y-92049592D01*
X178228148Y-91953389D01*
X178242939Y-91940758D01*
X178322464Y-91882981D01*
X178462981Y-91742464D01*
X178579787Y-91581694D01*
X178670005Y-91404632D01*
X178731413Y-91215636D01*
X178762500Y-91019361D01*
X178762500Y-90820639D01*
X178731413Y-90624364D01*
X178670005Y-90435368D01*
X178670005Y-90435367D01*
X178592404Y-90283069D01*
X178579787Y-90258306D01*
X178462981Y-90097536D01*
X178322464Y-89957019D01*
X178242937Y-89899239D01*
X178228147Y-89886608D01*
X178131947Y-89790408D01*
X178075003Y-89756731D01*
X178027321Y-89705663D01*
X178014817Y-89636921D01*
X178041462Y-89572332D01*
X178075004Y-89543268D01*
X178131947Y-89509592D01*
X178228148Y-89413389D01*
X178242939Y-89400758D01*
X178243023Y-89400697D01*
X178322464Y-89342981D01*
X178462981Y-89202464D01*
X178579787Y-89041694D01*
X178670005Y-88864632D01*
X178731413Y-88675636D01*
X178762500Y-88479361D01*
X178762500Y-88280639D01*
X178731413Y-88084364D01*
X178682592Y-87934108D01*
X178670006Y-87895370D01*
X178670005Y-87895367D01*
X178610967Y-87779500D01*
X178579787Y-87718306D01*
X178462981Y-87557536D01*
X178322464Y-87417019D01*
X178303497Y-87403239D01*
X178242938Y-87359240D01*
X178228147Y-87346608D01*
X178131947Y-87250408D01*
X178075003Y-87216731D01*
X178027321Y-87165663D01*
X178014817Y-87096921D01*
X178041462Y-87032332D01*
X178075004Y-87003268D01*
X178131947Y-86969592D01*
X178228148Y-86873389D01*
X178242939Y-86860758D01*
X178322464Y-86802981D01*
X178462981Y-86662464D01*
X178579787Y-86501694D01*
X178670005Y-86324632D01*
X178731413Y-86135636D01*
X178762500Y-85939361D01*
X178762500Y-85740639D01*
X178731413Y-85544364D01*
X178670005Y-85355368D01*
X178670005Y-85355367D01*
X178617232Y-85251795D01*
X178579787Y-85178306D01*
X178462981Y-85017536D01*
X178322464Y-84877019D01*
X178242937Y-84819239D01*
X178228147Y-84806608D01*
X178131947Y-84710408D01*
X178075003Y-84676731D01*
X178027321Y-84625663D01*
X178014817Y-84556921D01*
X178041462Y-84492332D01*
X178075004Y-84463268D01*
X178075498Y-84462976D01*
X178131947Y-84429592D01*
X178228148Y-84333389D01*
X178242939Y-84320758D01*
X178322464Y-84262981D01*
X178462981Y-84122464D01*
X178579787Y-83961694D01*
X178670005Y-83784632D01*
X178731413Y-83595636D01*
X178762500Y-83399361D01*
X178762500Y-83200639D01*
X178731413Y-83004364D01*
X178670005Y-82815368D01*
X178670005Y-82815367D01*
X178599508Y-82677011D01*
X178579787Y-82638306D01*
X178462981Y-82477536D01*
X178322464Y-82337019D01*
X178242938Y-82279240D01*
X178228147Y-82266608D01*
X178131947Y-82170408D01*
X178075003Y-82136731D01*
X178027321Y-82085663D01*
X178014817Y-82016921D01*
X178041462Y-81952332D01*
X178075004Y-81923268D01*
X178131947Y-81889592D01*
X178228148Y-81793389D01*
X178242939Y-81780758D01*
X178322464Y-81722981D01*
X178462981Y-81582464D01*
X178579787Y-81421694D01*
X178670005Y-81244632D01*
X178731413Y-81055636D01*
X178762500Y-80859361D01*
X178762500Y-80660639D01*
X191477500Y-80660639D01*
X191477500Y-80859360D01*
X191508587Y-81055637D01*
X191569993Y-81244629D01*
X191569994Y-81244632D01*
X191660213Y-81421694D01*
X191777019Y-81582464D01*
X191777021Y-81582466D01*
X191917539Y-81722984D01*
X191997060Y-81780758D01*
X192011851Y-81793390D01*
X192108053Y-81889592D01*
X192108054Y-81889593D01*
X192108056Y-81889594D01*
X192165486Y-81923558D01*
X192213170Y-81974627D01*
X192225673Y-82043369D01*
X192199028Y-82107958D01*
X192165487Y-82137021D01*
X192108370Y-82170800D01*
X192108357Y-82170810D01*
X192036360Y-82242806D01*
X192036360Y-82242807D01*
X192655905Y-82862352D01*
X192568429Y-82885792D01*
X192467070Y-82944311D01*
X192384311Y-83027070D01*
X192325792Y-83128429D01*
X192302352Y-83215905D01*
X191687730Y-82601282D01*
X191687729Y-82601283D01*
X191660643Y-82638564D01*
X191570457Y-82815562D01*
X191509075Y-83004476D01*
X191509075Y-83004479D01*
X191478000Y-83200678D01*
X191478000Y-83399321D01*
X191509075Y-83595520D01*
X191509075Y-83595523D01*
X191570457Y-83784437D01*
X191660641Y-83961432D01*
X191687730Y-83998715D01*
X191687731Y-83998716D01*
X192302352Y-83384094D01*
X192325792Y-83471571D01*
X192384311Y-83572930D01*
X192467070Y-83655689D01*
X192568429Y-83714208D01*
X192655904Y-83737647D01*
X192036360Y-84357191D01*
X192108360Y-84429192D01*
X192108364Y-84429195D01*
X192165486Y-84462977D01*
X192213169Y-84514046D01*
X192225673Y-84582788D01*
X192199028Y-84647377D01*
X192165487Y-84676440D01*
X192108058Y-84710403D01*
X192108046Y-84710413D01*
X192011854Y-84806604D01*
X191997061Y-84819239D01*
X191917536Y-84877018D01*
X191777021Y-85017533D01*
X191660213Y-85178305D01*
X191569994Y-85355367D01*
X191569993Y-85355370D01*
X191508587Y-85544362D01*
X191477500Y-85740639D01*
X191477500Y-85939360D01*
X191508587Y-86135637D01*
X191569993Y-86324629D01*
X191569994Y-86324632D01*
X191660213Y-86501694D01*
X191777019Y-86662464D01*
X191777021Y-86662466D01*
X191917539Y-86802984D01*
X191978395Y-86847197D01*
X191996016Y-86860000D01*
X191997060Y-86860758D01*
X192011851Y-86873390D01*
X192108053Y-86969592D01*
X192164996Y-87003268D01*
X192212679Y-87054338D01*
X192225182Y-87123079D01*
X192198536Y-87187669D01*
X192164996Y-87216732D01*
X192108053Y-87250408D01*
X192108046Y-87250413D01*
X192011854Y-87346604D01*
X191997061Y-87359239D01*
X191917536Y-87417018D01*
X191777021Y-87557533D01*
X191660213Y-87718305D01*
X191569994Y-87895367D01*
X191569993Y-87895370D01*
X191508587Y-88084362D01*
X191477500Y-88280639D01*
X191477500Y-88479360D01*
X191508587Y-88675637D01*
X191569993Y-88864629D01*
X191569994Y-88864632D01*
X191627381Y-88977258D01*
X191660213Y-89041694D01*
X191777019Y-89202464D01*
X191777021Y-89202466D01*
X191917539Y-89342984D01*
X191997060Y-89400758D01*
X192011851Y-89413390D01*
X192108053Y-89509592D01*
X192164996Y-89543268D01*
X192212679Y-89594338D01*
X192225182Y-89663079D01*
X192198536Y-89727669D01*
X192164996Y-89756732D01*
X192108053Y-89790408D01*
X192108046Y-89790413D01*
X192011854Y-89886604D01*
X191997061Y-89899239D01*
X191917536Y-89957018D01*
X191777021Y-90097533D01*
X191660213Y-90258305D01*
X191569994Y-90435367D01*
X191569993Y-90435370D01*
X191508587Y-90624362D01*
X191477500Y-90820639D01*
X191477500Y-91019360D01*
X191508587Y-91215637D01*
X191569993Y-91404629D01*
X191569994Y-91404632D01*
X191641330Y-91544635D01*
X191660213Y-91581694D01*
X191777019Y-91742464D01*
X191777021Y-91742466D01*
X191917539Y-91882984D01*
X191997060Y-91940758D01*
X192011851Y-91953390D01*
X192108053Y-92049592D01*
X192164996Y-92083268D01*
X192212679Y-92134338D01*
X192225182Y-92203079D01*
X192198536Y-92267669D01*
X192164996Y-92296732D01*
X192108053Y-92330408D01*
X192108046Y-92330413D01*
X192011854Y-92426604D01*
X191997061Y-92439239D01*
X191917536Y-92497018D01*
X191777021Y-92637533D01*
X191660213Y-92798305D01*
X191569994Y-92975367D01*
X191569993Y-92975370D01*
X191508587Y-93164362D01*
X191477500Y-93360639D01*
X191477500Y-93559360D01*
X191508587Y-93755637D01*
X191569993Y-93944629D01*
X191569994Y-93944632D01*
X191607488Y-94018216D01*
X191660213Y-94121694D01*
X191777019Y-94282464D01*
X191777021Y-94282466D01*
X191917539Y-94422984D01*
X191997060Y-94480758D01*
X192011851Y-94493390D01*
X192108053Y-94589592D01*
X192164996Y-94623268D01*
X192212679Y-94674338D01*
X192225182Y-94743079D01*
X192198536Y-94807669D01*
X192164996Y-94836732D01*
X192108053Y-94870408D01*
X192108046Y-94870413D01*
X192011854Y-94966604D01*
X191997061Y-94979239D01*
X191917536Y-95037018D01*
X191777021Y-95177533D01*
X191660213Y-95338305D01*
X191569994Y-95515367D01*
X191569993Y-95515370D01*
X191508587Y-95704362D01*
X191477500Y-95900639D01*
X191477500Y-96099360D01*
X191508587Y-96295637D01*
X191569993Y-96484629D01*
X191569994Y-96484632D01*
X191660213Y-96661694D01*
X191777019Y-96822464D01*
X191777021Y-96822466D01*
X191917539Y-96962984D01*
X191997060Y-97020758D01*
X192011851Y-97033390D01*
X192108053Y-97129592D01*
X192250041Y-97213564D01*
X192291816Y-97225701D01*
X192408447Y-97259586D01*
X192408450Y-97259586D01*
X192408452Y-97259587D01*
X192445466Y-97262500D01*
X192445474Y-97262500D01*
X194704526Y-97262500D01*
X194704534Y-97262500D01*
X194741548Y-97259587D01*
X194741550Y-97259586D01*
X194741552Y-97259586D01*
X194783323Y-97247449D01*
X194899959Y-97213564D01*
X195041947Y-97129592D01*
X195158592Y-97012947D01*
X195242564Y-96870959D01*
X195285795Y-96722157D01*
X195288586Y-96712552D01*
X195288587Y-96712546D01*
X195290126Y-96692993D01*
X195291500Y-96675534D01*
X195291500Y-95324466D01*
X195288587Y-95287452D01*
X195242564Y-95129041D01*
X195158592Y-94987053D01*
X195158590Y-94987051D01*
X195158587Y-94987047D01*
X195041952Y-94870412D01*
X195041944Y-94870406D01*
X194985004Y-94836732D01*
X194937321Y-94785663D01*
X194924817Y-94716921D01*
X194951462Y-94652332D01*
X194985004Y-94623268D01*
X195041947Y-94589592D01*
X195158592Y-94472947D01*
X195242564Y-94330959D01*
X195288587Y-94172548D01*
X195291500Y-94135534D01*
X195291500Y-92784466D01*
X195288587Y-92747452D01*
X195273534Y-92695641D01*
X195242565Y-92589045D01*
X195242564Y-92589042D01*
X195242564Y-92589041D01*
X195158592Y-92447053D01*
X195158590Y-92447051D01*
X195158587Y-92447047D01*
X195041952Y-92330412D01*
X195041944Y-92330406D01*
X194985004Y-92296732D01*
X194937321Y-92245663D01*
X194924817Y-92176921D01*
X194951462Y-92112332D01*
X194985004Y-92083268D01*
X195041947Y-92049592D01*
X195158592Y-91932947D01*
X195242564Y-91790959D01*
X195288587Y-91632548D01*
X195291500Y-91595534D01*
X195291500Y-90244466D01*
X195288587Y-90207452D01*
X195242564Y-90049041D01*
X195158592Y-89907053D01*
X195158590Y-89907051D01*
X195158587Y-89907047D01*
X195041952Y-89790412D01*
X195041944Y-89790406D01*
X194985004Y-89756732D01*
X194937321Y-89705663D01*
X194924817Y-89636921D01*
X194951462Y-89572332D01*
X194985004Y-89543268D01*
X195041947Y-89509592D01*
X195158592Y-89392947D01*
X195242564Y-89250959D01*
X195288587Y-89092548D01*
X195291500Y-89055534D01*
X195291500Y-87704466D01*
X195288587Y-87667452D01*
X195275211Y-87621413D01*
X195245545Y-87519301D01*
X195242564Y-87509041D01*
X195158592Y-87367053D01*
X195158590Y-87367051D01*
X195158587Y-87367047D01*
X195041952Y-87250412D01*
X195041944Y-87250406D01*
X194985004Y-87216732D01*
X194937321Y-87165663D01*
X194924817Y-87096921D01*
X194951462Y-87032332D01*
X194985004Y-87003268D01*
X195041947Y-86969592D01*
X195158592Y-86852947D01*
X195242564Y-86710959D01*
X195288587Y-86552548D01*
X195291500Y-86515534D01*
X195291500Y-85164466D01*
X195288587Y-85127452D01*
X195275136Y-85081155D01*
X195242565Y-84969045D01*
X195242564Y-84969042D01*
X195242564Y-84969041D01*
X195158592Y-84827053D01*
X195158590Y-84827051D01*
X195158587Y-84827047D01*
X195041952Y-84710412D01*
X195041948Y-84710409D01*
X195041947Y-84710408D01*
X194984511Y-84676440D01*
X194936829Y-84625371D01*
X194924326Y-84556630D01*
X194950972Y-84492040D01*
X194984514Y-84462976D01*
X195041637Y-84429193D01*
X195041643Y-84429189D01*
X195158189Y-84312643D01*
X195158196Y-84312634D01*
X195242102Y-84170756D01*
X195242103Y-84170753D01*
X195288088Y-84012473D01*
X195288089Y-84012467D01*
X195290999Y-83975488D01*
X195290999Y-82624530D01*
X195290998Y-82624508D01*
X195288089Y-82587533D01*
X195242102Y-82429242D01*
X195158196Y-82287365D01*
X195158189Y-82287356D01*
X195041643Y-82170810D01*
X195041634Y-82170803D01*
X194984513Y-82137022D01*
X194936829Y-82085953D01*
X194924326Y-82017211D01*
X194950972Y-81952622D01*
X194984514Y-81923558D01*
X195041941Y-81889596D01*
X195041942Y-81889594D01*
X195041947Y-81889592D01*
X195158592Y-81772947D01*
X195242564Y-81630959D01*
X195288587Y-81472548D01*
X195291500Y-81435534D01*
X195291500Y-80084466D01*
X195288587Y-80047452D01*
X195242564Y-79889041D01*
X195158592Y-79747053D01*
X195158590Y-79747051D01*
X195158587Y-79747047D01*
X195041952Y-79630412D01*
X195041943Y-79630405D01*
X194931718Y-79565218D01*
X194899959Y-79546436D01*
X194899958Y-79546435D01*
X194899957Y-79546435D01*
X194899954Y-79546434D01*
X194741552Y-79500413D01*
X194741546Y-79500412D01*
X194704541Y-79497500D01*
X194704534Y-79497500D01*
X192445466Y-79497500D01*
X192445458Y-79497500D01*
X192408453Y-79500412D01*
X192408447Y-79500413D01*
X192250045Y-79546434D01*
X192250042Y-79546435D01*
X192108056Y-79630405D01*
X192108046Y-79630413D01*
X192011854Y-79726604D01*
X191997061Y-79739239D01*
X191917536Y-79797018D01*
X191777021Y-79937533D01*
X191660213Y-80098305D01*
X191569994Y-80275367D01*
X191569993Y-80275370D01*
X191508587Y-80464362D01*
X191477500Y-80660639D01*
X178762500Y-80660639D01*
X178731413Y-80464364D01*
X178670005Y-80275368D01*
X178670005Y-80275367D01*
X178579786Y-80098305D01*
X178462981Y-79937536D01*
X178322464Y-79797019D01*
X178242937Y-79739239D01*
X178228147Y-79726608D01*
X178131947Y-79630408D01*
X178131946Y-79630407D01*
X178131943Y-79630405D01*
X178021718Y-79565218D01*
X177989959Y-79546436D01*
X177989958Y-79546435D01*
X177989957Y-79546435D01*
X177989954Y-79546434D01*
X177831552Y-79500413D01*
X177831546Y-79500412D01*
X177794541Y-79497500D01*
X177794534Y-79497500D01*
X175535466Y-79497500D01*
X175535458Y-79497500D01*
X175498453Y-79500412D01*
X175498447Y-79500413D01*
X175340045Y-79546434D01*
X175340042Y-79546435D01*
X175198056Y-79630405D01*
X175198047Y-79630412D01*
X175081412Y-79747047D01*
X175081405Y-79747056D01*
X174997435Y-79889042D01*
X174997434Y-79889045D01*
X174951413Y-80047447D01*
X174951412Y-80047453D01*
X174948500Y-80084458D01*
X174948500Y-81435541D01*
X174951412Y-81472546D01*
X174951413Y-81472552D01*
X174997434Y-81630954D01*
X174997435Y-81630957D01*
X175081405Y-81772943D01*
X175081412Y-81772952D01*
X175198047Y-81889587D01*
X175198050Y-81889589D01*
X175198053Y-81889592D01*
X175254996Y-81923268D01*
X175302679Y-81974338D01*
X175315182Y-82043079D01*
X175288536Y-82107669D01*
X175254996Y-82136731D01*
X175198056Y-82170406D01*
X175198053Y-82170408D01*
X175198047Y-82170412D01*
X175081412Y-82287047D01*
X175081405Y-82287056D01*
X174997435Y-82429042D01*
X174997434Y-82429045D01*
X174951413Y-82587447D01*
X174950274Y-82593688D01*
X174948487Y-82593361D01*
X174926706Y-82650514D01*
X174870476Y-82691987D01*
X174827970Y-82699500D01*
X173600098Y-82699500D01*
X173533059Y-82679815D01*
X173512417Y-82663181D01*
X166008279Y-75159043D01*
X165974794Y-75097720D01*
X165979778Y-75028028D01*
X166021650Y-74972095D01*
X166087114Y-74947678D01*
X166155387Y-74962530D01*
X166157914Y-74963948D01*
X166227465Y-75004104D01*
X166463687Y-75101950D01*
X166710660Y-75168126D01*
X166964157Y-75201500D01*
X166964164Y-75201500D01*
X168119836Y-75201500D01*
X168119843Y-75201500D01*
X168373340Y-75168126D01*
X168620313Y-75101950D01*
X168856535Y-75004104D01*
X169077965Y-74876261D01*
X169280813Y-74720610D01*
X169461610Y-74539813D01*
X169617261Y-74336965D01*
X169745104Y-74115535D01*
X169745108Y-74115526D01*
X169760939Y-74077307D01*
X169804779Y-74022903D01*
X169871073Y-74000838D01*
X169938773Y-74018117D01*
X169986384Y-74069254D01*
X169999500Y-74124759D01*
X169999500Y-74815891D01*
X170033608Y-74943187D01*
X170066554Y-75000250D01*
X170099500Y-75057314D01*
X170192686Y-75150500D01*
X170306814Y-75216392D01*
X170434108Y-75250500D01*
X215625500Y-75250500D01*
X215692539Y-75270185D01*
X215738294Y-75322989D01*
X215749500Y-75374500D01*
X215749500Y-78625500D01*
X215729815Y-78692539D01*
X215677011Y-78738294D01*
X215625500Y-78749500D01*
X211934108Y-78749500D01*
X211806812Y-78783608D01*
X211692686Y-78849500D01*
X211692683Y-78849502D01*
X211599502Y-78942683D01*
X211599500Y-78942686D01*
X211533608Y-79056812D01*
X211499500Y-79184108D01*
X211499500Y-82625500D01*
X211479815Y-82692539D01*
X211427011Y-82738294D01*
X211375500Y-82749500D01*
X206934108Y-82749500D01*
X206806812Y-82783608D01*
X206692686Y-82849500D01*
X206692683Y-82849502D01*
X206599502Y-82942683D01*
X206599500Y-82942686D01*
X206533608Y-83056812D01*
X206499500Y-83184108D01*
X206499500Y-87375500D01*
X206479815Y-87442539D01*
X206427011Y-87488294D01*
X206375500Y-87499500D01*
X201434108Y-87499500D01*
X201306812Y-87533608D01*
X201192686Y-87599500D01*
X201192683Y-87599502D01*
X201099502Y-87692683D01*
X201099500Y-87692686D01*
X201033608Y-87806812D01*
X200999500Y-87934108D01*
X200999500Y-91625500D01*
X200979815Y-91692539D01*
X200927011Y-91738294D01*
X200875500Y-91749500D01*
X196684108Y-91749500D01*
X196556812Y-91783608D01*
X196442686Y-91849500D01*
X196442683Y-91849502D01*
X196349502Y-91942683D01*
X196349500Y-91942686D01*
X196283608Y-92056812D01*
X196249500Y-92184108D01*
X196249500Y-107315891D01*
X196283608Y-107443187D01*
X196316554Y-107500250D01*
X196349500Y-107557314D01*
X196442686Y-107650500D01*
X196556814Y-107716392D01*
X196684108Y-107750500D01*
X200875500Y-107750500D01*
X200942539Y-107770185D01*
X200988294Y-107822989D01*
X200999500Y-107874500D01*
X200999500Y-120565891D01*
X201033608Y-120693187D01*
X201047006Y-120716392D01*
X201099500Y-120807314D01*
X201192686Y-120900500D01*
X201306814Y-120966392D01*
X201434108Y-121000500D01*
X211375500Y-121000500D01*
X211442539Y-121020185D01*
X211488294Y-121072989D01*
X211499500Y-121124500D01*
X211499500Y-139875500D01*
X211479815Y-139942539D01*
X211427011Y-139988294D01*
X211375500Y-139999500D01*
X188124500Y-139999500D01*
X188057461Y-139979815D01*
X188011706Y-139927011D01*
X188000500Y-139875500D01*
X188000500Y-135184110D01*
X188000500Y-135184108D01*
X187966392Y-135056814D01*
X187900500Y-134942686D01*
X187807314Y-134849500D01*
X187750250Y-134816554D01*
X187693187Y-134783608D01*
X187629539Y-134766554D01*
X187565892Y-134749500D01*
X187565891Y-134749500D01*
X183124500Y-134749500D01*
X183057461Y-134729815D01*
X183011706Y-134677011D01*
X183000500Y-134625500D01*
X183000500Y-130184110D01*
X183000500Y-130184108D01*
X182966392Y-130056814D01*
X182900500Y-129942686D01*
X182807314Y-129849500D01*
X182750250Y-129816554D01*
X182693187Y-129783608D01*
X182629539Y-129766554D01*
X182565892Y-129749500D01*
X182565891Y-129749500D01*
X178124500Y-129749500D01*
X178057461Y-129729815D01*
X178011706Y-129677011D01*
X178000500Y-129625500D01*
X178000500Y-125184110D01*
X178000500Y-125184108D01*
X177966392Y-125056814D01*
X177900500Y-124942686D01*
X177807314Y-124849500D01*
X177750250Y-124816554D01*
X177693187Y-124783608D01*
X177629539Y-124766554D01*
X177565892Y-124749500D01*
X177565891Y-124749500D01*
X173124500Y-124749500D01*
X173057461Y-124729815D01*
X173011706Y-124677011D01*
X173000500Y-124625500D01*
X173000500Y-120184110D01*
X173000500Y-120184108D01*
X172966392Y-120056814D01*
X172900500Y-119942686D01*
X172807314Y-119849500D01*
X172750250Y-119816554D01*
X172693187Y-119783608D01*
X172629539Y-119766554D01*
X172565892Y-119749500D01*
X172565891Y-119749500D01*
X168124500Y-119749500D01*
X168057461Y-119729815D01*
X168011706Y-119677011D01*
X168000500Y-119625500D01*
X168000500Y-115184110D01*
X168000500Y-115184108D01*
X167966392Y-115056814D01*
X167900500Y-114942686D01*
X167807314Y-114849500D01*
X167714584Y-114795962D01*
X167693187Y-114783608D01*
X167629539Y-114766554D01*
X167565892Y-114749500D01*
X167565891Y-114749500D01*
X163124500Y-114749500D01*
X163057461Y-114729815D01*
X163011706Y-114677011D01*
X163000500Y-114625500D01*
X163000500Y-110184110D01*
X163000500Y-110184108D01*
X162966392Y-110056814D01*
X162900500Y-109942686D01*
X162807314Y-109849500D01*
X162750250Y-109816554D01*
X162693187Y-109783608D01*
X162629539Y-109766554D01*
X162565892Y-109749500D01*
X162565891Y-109749500D01*
X158124500Y-109749500D01*
X158057461Y-109729815D01*
X158011706Y-109677011D01*
X158000500Y-109625500D01*
X158000500Y-105184110D01*
X158000500Y-105184108D01*
X157966392Y-105056814D01*
X157900500Y-104942686D01*
X157807314Y-104849500D01*
X157750250Y-104816554D01*
X157693187Y-104783608D01*
X157629539Y-104766554D01*
X157565892Y-104749500D01*
X152565892Y-104749500D01*
X152434108Y-104749500D01*
X152306812Y-104783608D01*
X152192686Y-104849500D01*
X152192683Y-104849502D01*
X152099502Y-104942683D01*
X152099500Y-104942686D01*
X152033608Y-105056812D01*
X151999500Y-105184108D01*
X151999500Y-109625500D01*
X151979815Y-109692539D01*
X151927011Y-109738294D01*
X151875500Y-109749500D01*
X147434108Y-109749500D01*
X147306812Y-109783608D01*
X147192686Y-109849500D01*
X147192683Y-109849502D01*
X147099502Y-109942683D01*
X147099500Y-109942686D01*
X147033608Y-110056812D01*
X146999500Y-110184108D01*
X146999500Y-114625500D01*
X146979815Y-114692539D01*
X146927011Y-114738294D01*
X146875500Y-114749500D01*
X142434108Y-114749500D01*
X142306812Y-114783608D01*
X142192686Y-114849500D01*
X142192683Y-114849502D01*
X142099502Y-114942683D01*
X142099500Y-114942686D01*
X142033608Y-115056812D01*
X141999500Y-115184108D01*
X141999500Y-119625500D01*
X141979815Y-119692539D01*
X141927011Y-119738294D01*
X141875500Y-119749500D01*
X137434108Y-119749500D01*
X137306812Y-119783608D01*
X137192686Y-119849500D01*
X137192683Y-119849502D01*
X137099502Y-119942683D01*
X137099500Y-119942686D01*
X137033608Y-120056812D01*
X136999500Y-120184108D01*
X136999500Y-124625500D01*
X136979815Y-124692539D01*
X136927011Y-124738294D01*
X136875500Y-124749500D01*
X132684108Y-124749500D01*
X132556812Y-124783608D01*
X132442686Y-124849500D01*
X132442683Y-124849502D01*
X132349502Y-124942683D01*
X132349500Y-124942686D01*
X132283608Y-125056812D01*
X132249500Y-125184108D01*
X132249500Y-129875500D01*
X132229815Y-129942539D01*
X132177011Y-129988294D01*
X132125500Y-129999500D01*
X127684108Y-129999500D01*
X127556812Y-130033608D01*
X127442686Y-130099500D01*
X127442683Y-130099502D01*
X127349502Y-130192683D01*
X127349500Y-130192686D01*
X127283608Y-130306812D01*
X127249500Y-130434108D01*
X127249500Y-134625500D01*
X127229815Y-134692539D01*
X127177011Y-134738294D01*
X127125500Y-134749500D01*
X122184108Y-134749500D01*
X122056812Y-134783608D01*
X121942686Y-134849500D01*
X121942683Y-134849502D01*
X121849502Y-134942683D01*
X121849500Y-134942686D01*
X121783608Y-135056812D01*
X121749500Y-135184108D01*
X121749500Y-139875500D01*
X121729815Y-139942539D01*
X121677011Y-139988294D01*
X121625500Y-139999500D01*
X98374500Y-139999500D01*
X98307461Y-139979815D01*
X98261706Y-139927011D01*
X98250500Y-139875500D01*
X98250500Y-121124500D01*
X98270185Y-121057461D01*
X98322989Y-121011706D01*
X98374500Y-121000500D01*
X108315890Y-121000500D01*
X108315892Y-121000500D01*
X108443186Y-120966392D01*
X108557314Y-120900500D01*
X108650500Y-120807314D01*
X108716392Y-120693186D01*
X108750500Y-120565892D01*
X108750500Y-119663389D01*
X113649500Y-119663389D01*
X113649500Y-119836611D01*
X113651542Y-119849502D01*
X113666300Y-119942686D01*
X113676598Y-120007701D01*
X113730127Y-120172445D01*
X113808768Y-120326788D01*
X113910586Y-120466928D01*
X114033072Y-120589414D01*
X114173212Y-120691232D01*
X114327555Y-120769873D01*
X114492299Y-120823402D01*
X114663389Y-120850500D01*
X114663390Y-120850500D01*
X114836610Y-120850500D01*
X114836611Y-120850500D01*
X115007701Y-120823402D01*
X115172445Y-120769873D01*
X115326788Y-120691232D01*
X115466928Y-120589414D01*
X115589414Y-120466928D01*
X115691232Y-120326788D01*
X115769873Y-120172445D01*
X115823402Y-120007701D01*
X115850500Y-119836611D01*
X115850500Y-119663389D01*
X115840854Y-119602486D01*
X117579500Y-119602486D01*
X117579500Y-119897513D01*
X117601102Y-120061588D01*
X117618007Y-120189993D01*
X117692212Y-120466930D01*
X117694361Y-120474951D01*
X117694364Y-120474961D01*
X117807254Y-120747500D01*
X117807258Y-120747510D01*
X117954761Y-121002993D01*
X118134352Y-121237040D01*
X118134358Y-121237047D01*
X118342952Y-121445641D01*
X118342959Y-121445647D01*
X118577006Y-121625238D01*
X118832489Y-121772741D01*
X118832490Y-121772741D01*
X118832493Y-121772743D01*
X119105048Y-121885639D01*
X119390007Y-121961993D01*
X119682494Y-122000500D01*
X119682501Y-122000500D01*
X119977499Y-122000500D01*
X119977506Y-122000500D01*
X120269993Y-121961993D01*
X120554952Y-121885639D01*
X120827507Y-121772743D01*
X121082994Y-121625238D01*
X121317042Y-121445646D01*
X121525646Y-121237042D01*
X121705238Y-121002994D01*
X121852743Y-120747507D01*
X121965639Y-120474952D01*
X122041993Y-120189993D01*
X122080500Y-119897506D01*
X122080500Y-119663389D01*
X123809500Y-119663389D01*
X123809500Y-119836611D01*
X123811542Y-119849502D01*
X123826300Y-119942686D01*
X123836598Y-120007701D01*
X123890127Y-120172445D01*
X123968768Y-120326788D01*
X124070586Y-120466928D01*
X124193072Y-120589414D01*
X124333212Y-120691232D01*
X124487555Y-120769873D01*
X124652299Y-120823402D01*
X124823389Y-120850500D01*
X124823390Y-120850500D01*
X124996610Y-120850500D01*
X124996611Y-120850500D01*
X125167701Y-120823402D01*
X125332445Y-120769873D01*
X125486788Y-120691232D01*
X125626928Y-120589414D01*
X125749414Y-120466928D01*
X125851232Y-120326788D01*
X125929873Y-120172445D01*
X125983402Y-120007701D01*
X126010500Y-119836611D01*
X126010500Y-119663389D01*
X125983402Y-119492299D01*
X125929873Y-119327555D01*
X125851232Y-119173212D01*
X125749414Y-119033072D01*
X125626928Y-118910586D01*
X125486788Y-118808768D01*
X125332445Y-118730127D01*
X125167701Y-118676598D01*
X125167699Y-118676597D01*
X125167698Y-118676597D01*
X125036271Y-118655781D01*
X124996611Y-118649500D01*
X124823389Y-118649500D01*
X124783728Y-118655781D01*
X124652302Y-118676597D01*
X124487552Y-118730128D01*
X124333211Y-118808768D01*
X124277115Y-118849525D01*
X124193072Y-118910586D01*
X124193070Y-118910588D01*
X124193069Y-118910588D01*
X124070588Y-119033069D01*
X124070588Y-119033070D01*
X124070586Y-119033072D01*
X124043681Y-119070104D01*
X123968768Y-119173211D01*
X123890128Y-119327552D01*
X123836597Y-119492302D01*
X123815501Y-119625500D01*
X123809500Y-119663389D01*
X122080500Y-119663389D01*
X122080500Y-119602494D01*
X122041993Y-119310007D01*
X121965639Y-119025048D01*
X121852743Y-118752493D01*
X121802604Y-118665650D01*
X121705238Y-118497006D01*
X121525647Y-118262959D01*
X121525641Y-118262952D01*
X121317047Y-118054358D01*
X121317040Y-118054352D01*
X121082993Y-117874761D01*
X120827510Y-117727258D01*
X120827500Y-117727254D01*
X120554961Y-117614364D01*
X120554954Y-117614362D01*
X120554952Y-117614361D01*
X120269993Y-117538007D01*
X120221113Y-117531571D01*
X119977513Y-117499500D01*
X119977506Y-117499500D01*
X119682494Y-117499500D01*
X119682486Y-117499500D01*
X119404085Y-117536153D01*
X119390007Y-117538007D01*
X119215861Y-117584669D01*
X119105048Y-117614361D01*
X119105038Y-117614364D01*
X118832499Y-117727254D01*
X118832489Y-117727258D01*
X118577006Y-117874761D01*
X118342959Y-118054352D01*
X118342952Y-118054358D01*
X118134358Y-118262952D01*
X118134352Y-118262959D01*
X117954761Y-118497006D01*
X117807258Y-118752489D01*
X117807254Y-118752499D01*
X117694364Y-119025038D01*
X117694361Y-119025048D01*
X117648810Y-119195050D01*
X117618008Y-119310004D01*
X117618006Y-119310015D01*
X117579500Y-119602486D01*
X115840854Y-119602486D01*
X115823402Y-119492299D01*
X115769873Y-119327555D01*
X115691232Y-119173212D01*
X115589414Y-119033072D01*
X115536882Y-118980540D01*
X115503397Y-118919217D01*
X115508381Y-118849525D01*
X115550253Y-118793592D01*
X115615717Y-118769175D01*
X115643961Y-118770386D01*
X115894072Y-118810000D01*
X116145928Y-118810000D01*
X116394669Y-118770602D01*
X116634184Y-118692780D01*
X116858575Y-118578446D01*
X116858581Y-118578442D01*
X116960697Y-118504250D01*
X116960698Y-118504250D01*
X116344025Y-117887578D01*
X116375258Y-117874641D01*
X116498097Y-117792563D01*
X116602563Y-117688097D01*
X116684641Y-117565258D01*
X116697577Y-117534025D01*
X117314250Y-118150698D01*
X117314250Y-118150697D01*
X117388442Y-118048581D01*
X117388446Y-118048575D01*
X117502780Y-117824184D01*
X117580602Y-117584669D01*
X117620000Y-117335928D01*
X117620000Y-117084071D01*
X117580602Y-116835330D01*
X117502780Y-116595815D01*
X117388442Y-116371416D01*
X117314250Y-116269301D01*
X117314250Y-116269300D01*
X116697577Y-116885973D01*
X116684641Y-116854742D01*
X116602563Y-116731903D01*
X116498097Y-116627437D01*
X116375258Y-116545359D01*
X116344024Y-116532421D01*
X116960698Y-115915748D01*
X116858583Y-115841557D01*
X116634184Y-115727219D01*
X116394669Y-115649397D01*
X116145928Y-115610000D01*
X115894072Y-115610000D01*
X115645330Y-115649397D01*
X115405815Y-115727219D01*
X115181413Y-115841559D01*
X115079301Y-115915747D01*
X115079300Y-115915748D01*
X115695974Y-116532421D01*
X115664742Y-116545359D01*
X115541903Y-116627437D01*
X115437437Y-116731903D01*
X115355359Y-116854742D01*
X115342421Y-116885974D01*
X114725748Y-116269300D01*
X114725747Y-116269301D01*
X114651559Y-116371413D01*
X114537219Y-116595815D01*
X114459397Y-116835330D01*
X114420000Y-117084071D01*
X114420000Y-117335928D01*
X114459397Y-117584669D01*
X114537219Y-117824184D01*
X114651557Y-118048583D01*
X114725748Y-118150697D01*
X114725748Y-118150698D01*
X115342421Y-117534024D01*
X115355359Y-117565258D01*
X115437437Y-117688097D01*
X115541903Y-117792563D01*
X115664742Y-117874641D01*
X115695974Y-117887577D01*
X115079300Y-118504250D01*
X115081598Y-118533449D01*
X115067233Y-118601827D01*
X115018181Y-118651583D01*
X114950016Y-118666921D01*
X114938583Y-118665650D01*
X114836611Y-118649500D01*
X114663389Y-118649500D01*
X114623728Y-118655781D01*
X114492302Y-118676597D01*
X114327552Y-118730128D01*
X114173211Y-118808768D01*
X114117115Y-118849525D01*
X114033072Y-118910586D01*
X114033070Y-118910588D01*
X114033069Y-118910588D01*
X113910588Y-119033069D01*
X113910588Y-119033070D01*
X113910586Y-119033072D01*
X113883681Y-119070104D01*
X113808768Y-119173211D01*
X113730128Y-119327552D01*
X113676597Y-119492302D01*
X113655501Y-119625500D01*
X113649500Y-119663389D01*
X108750500Y-119663389D01*
X108750500Y-107874500D01*
X108770185Y-107807461D01*
X108822989Y-107761706D01*
X108874500Y-107750500D01*
X113065890Y-107750500D01*
X113065892Y-107750500D01*
X113193186Y-107716392D01*
X113307314Y-107650500D01*
X113400500Y-107557314D01*
X113466392Y-107443186D01*
X113500500Y-107315892D01*
X113500500Y-97184108D01*
X113500500Y-92184108D01*
X113466392Y-92056814D01*
X113462219Y-92049587D01*
X113445063Y-92019871D01*
X113400500Y-91942686D01*
X113307314Y-91849500D01*
X113250250Y-91816554D01*
X113193187Y-91783608D01*
X113129539Y-91766554D01*
X113065892Y-91749500D01*
X113065891Y-91749500D01*
X108874500Y-91749500D01*
X108807461Y-91729815D01*
X108761706Y-91677011D01*
X108750500Y-91625500D01*
X108750500Y-90913389D01*
X118319500Y-90913389D01*
X118319500Y-91086610D01*
X118339935Y-91215637D01*
X118346598Y-91257701D01*
X118400127Y-91422445D01*
X118478768Y-91576788D01*
X118580586Y-91716928D01*
X118703072Y-91839414D01*
X118843212Y-91941232D01*
X118997555Y-92019873D01*
X119162299Y-92073402D01*
X119333389Y-92100500D01*
X119333390Y-92100500D01*
X119506610Y-92100500D01*
X119506611Y-92100500D01*
X119677701Y-92073402D01*
X119842445Y-92019873D01*
X119996788Y-91941232D01*
X120136928Y-91839414D01*
X120259414Y-91716928D01*
X120361232Y-91576788D01*
X120439873Y-91422445D01*
X120493402Y-91257701D01*
X120520500Y-91086611D01*
X120520500Y-90913389D01*
X120510854Y-90852486D01*
X122249500Y-90852486D01*
X122249500Y-91147513D01*
X122281571Y-91391113D01*
X122288007Y-91439993D01*
X122362212Y-91716930D01*
X122364361Y-91724951D01*
X122364364Y-91724961D01*
X122477254Y-91997500D01*
X122477258Y-91997510D01*
X122624761Y-92252993D01*
X122804352Y-92487040D01*
X122804358Y-92487047D01*
X123012952Y-92695641D01*
X123012959Y-92695647D01*
X123247006Y-92875238D01*
X123502489Y-93022741D01*
X123502490Y-93022741D01*
X123502493Y-93022743D01*
X123775048Y-93135639D01*
X124060007Y-93211993D01*
X124352494Y-93250500D01*
X124352501Y-93250500D01*
X124647499Y-93250500D01*
X124647506Y-93250500D01*
X124939993Y-93211993D01*
X125224952Y-93135639D01*
X125497507Y-93022743D01*
X125752994Y-92875238D01*
X125987042Y-92695646D01*
X126195646Y-92487042D01*
X126375238Y-92252994D01*
X126522743Y-91997507D01*
X126635639Y-91724952D01*
X126711993Y-91439993D01*
X126750500Y-91147506D01*
X126750500Y-90913389D01*
X128479500Y-90913389D01*
X128479500Y-91086610D01*
X128499935Y-91215637D01*
X128506598Y-91257701D01*
X128560127Y-91422445D01*
X128638768Y-91576788D01*
X128740586Y-91716928D01*
X128863072Y-91839414D01*
X129003212Y-91941232D01*
X129157555Y-92019873D01*
X129322299Y-92073402D01*
X129493389Y-92100500D01*
X129493390Y-92100500D01*
X129666610Y-92100500D01*
X129666611Y-92100500D01*
X129837701Y-92073402D01*
X130002445Y-92019873D01*
X130156788Y-91941232D01*
X130296928Y-91839414D01*
X130419414Y-91716928D01*
X130521232Y-91576788D01*
X130599873Y-91422445D01*
X130653402Y-91257701D01*
X130680500Y-91086611D01*
X130680500Y-90913389D01*
X130653402Y-90742299D01*
X130599873Y-90577555D01*
X130521232Y-90423212D01*
X130419414Y-90283072D01*
X130296928Y-90160586D01*
X130156788Y-90058768D01*
X130002445Y-89980127D01*
X129837701Y-89926598D01*
X129837699Y-89926597D01*
X129837698Y-89926597D01*
X129706271Y-89905781D01*
X129666611Y-89899500D01*
X129493389Y-89899500D01*
X129453728Y-89905781D01*
X129322302Y-89926597D01*
X129157552Y-89980128D01*
X129003211Y-90058768D01*
X128947115Y-90099525D01*
X128863072Y-90160586D01*
X128863070Y-90160588D01*
X128863069Y-90160588D01*
X128740588Y-90283069D01*
X128740588Y-90283070D01*
X128740586Y-90283072D01*
X128696859Y-90343256D01*
X128638768Y-90423211D01*
X128560128Y-90577552D01*
X128506597Y-90742302D01*
X128479500Y-90913389D01*
X126750500Y-90913389D01*
X126750500Y-90852494D01*
X126711993Y-90560007D01*
X126635639Y-90275048D01*
X126522743Y-90002493D01*
X126472604Y-89915650D01*
X126375238Y-89747006D01*
X126195647Y-89512959D01*
X126195641Y-89512952D01*
X125987047Y-89304358D01*
X125987040Y-89304352D01*
X125752993Y-89124761D01*
X125497510Y-88977258D01*
X125497500Y-88977254D01*
X125224961Y-88864364D01*
X125224954Y-88864362D01*
X125224952Y-88864361D01*
X124939993Y-88788007D01*
X124891113Y-88781571D01*
X124647513Y-88749500D01*
X124647506Y-88749500D01*
X124352494Y-88749500D01*
X124352486Y-88749500D01*
X124074085Y-88786153D01*
X124060007Y-88788007D01*
X123885861Y-88834669D01*
X123775048Y-88864361D01*
X123775038Y-88864364D01*
X123502499Y-88977254D01*
X123502489Y-88977258D01*
X123247006Y-89124761D01*
X123012959Y-89304352D01*
X123012952Y-89304358D01*
X122804358Y-89512952D01*
X122804352Y-89512959D01*
X122624761Y-89747006D01*
X122477258Y-90002489D01*
X122477254Y-90002499D01*
X122364364Y-90275038D01*
X122364361Y-90275048D01*
X122288008Y-90560004D01*
X122288006Y-90560015D01*
X122249500Y-90852486D01*
X120510854Y-90852486D01*
X120493402Y-90742299D01*
X120439873Y-90577555D01*
X120361232Y-90423212D01*
X120259414Y-90283072D01*
X120206882Y-90230540D01*
X120173397Y-90169217D01*
X120178381Y-90099525D01*
X120220253Y-90043592D01*
X120285717Y-90019175D01*
X120313961Y-90020386D01*
X120564072Y-90060000D01*
X120815928Y-90060000D01*
X121064669Y-90020602D01*
X121304184Y-89942780D01*
X121528575Y-89828446D01*
X121528581Y-89828442D01*
X121630697Y-89754250D01*
X121630698Y-89754250D01*
X121014025Y-89137578D01*
X121045258Y-89124641D01*
X121168097Y-89042563D01*
X121272563Y-88938097D01*
X121354641Y-88815258D01*
X121367577Y-88784025D01*
X121984250Y-89400698D01*
X121984250Y-89400697D01*
X122058442Y-89298581D01*
X122058446Y-89298575D01*
X122172780Y-89074184D01*
X122250602Y-88834669D01*
X122290000Y-88585928D01*
X122290000Y-88334071D01*
X122250602Y-88085330D01*
X122172780Y-87845815D01*
X122058442Y-87621416D01*
X121984250Y-87519301D01*
X121984250Y-87519300D01*
X121367577Y-88135973D01*
X121354641Y-88104742D01*
X121272563Y-87981903D01*
X121168097Y-87877437D01*
X121045258Y-87795359D01*
X121014024Y-87782421D01*
X121630698Y-87165748D01*
X121528583Y-87091557D01*
X121304184Y-86977219D01*
X121064669Y-86899397D01*
X120815928Y-86860000D01*
X120564072Y-86860000D01*
X120315330Y-86899397D01*
X120075815Y-86977219D01*
X119851413Y-87091559D01*
X119749301Y-87165747D01*
X119749300Y-87165748D01*
X120365974Y-87782421D01*
X120334742Y-87795359D01*
X120211903Y-87877437D01*
X120107437Y-87981903D01*
X120025359Y-88104742D01*
X120012421Y-88135974D01*
X119395748Y-87519300D01*
X119395747Y-87519301D01*
X119321559Y-87621413D01*
X119207219Y-87845815D01*
X119129397Y-88085330D01*
X119090000Y-88334071D01*
X119090000Y-88585928D01*
X119129397Y-88834669D01*
X119207219Y-89074184D01*
X119321557Y-89298583D01*
X119395748Y-89400697D01*
X119395748Y-89400698D01*
X120012421Y-88784024D01*
X120025359Y-88815258D01*
X120107437Y-88938097D01*
X120211903Y-89042563D01*
X120334742Y-89124641D01*
X120365974Y-89137577D01*
X119749300Y-89754250D01*
X119751598Y-89783449D01*
X119737233Y-89851827D01*
X119688181Y-89901583D01*
X119620016Y-89916921D01*
X119608583Y-89915650D01*
X119506611Y-89899500D01*
X119333389Y-89899500D01*
X119293728Y-89905781D01*
X119162302Y-89926597D01*
X118997552Y-89980128D01*
X118843211Y-90058768D01*
X118787115Y-90099525D01*
X118703072Y-90160586D01*
X118703070Y-90160588D01*
X118703069Y-90160588D01*
X118580588Y-90283069D01*
X118580588Y-90283070D01*
X118580586Y-90283072D01*
X118536859Y-90343256D01*
X118478768Y-90423211D01*
X118400128Y-90577552D01*
X118346597Y-90742302D01*
X118319500Y-90913389D01*
X108750500Y-90913389D01*
X108750500Y-87934110D01*
X108750500Y-87934108D01*
X108716392Y-87806814D01*
X108650500Y-87692686D01*
X108557314Y-87599500D01*
X108500250Y-87566554D01*
X108443187Y-87533608D01*
X108379539Y-87516554D01*
X108315892Y-87499500D01*
X108315891Y-87499500D01*
X103374500Y-87499500D01*
X103365814Y-87496949D01*
X103356853Y-87498238D01*
X103332812Y-87487259D01*
X103307461Y-87479815D01*
X103301533Y-87472974D01*
X103293297Y-87469213D01*
X103279007Y-87446978D01*
X103261706Y-87427011D01*
X103259418Y-87416496D01*
X103255523Y-87410435D01*
X103250500Y-87375500D01*
X103250500Y-83184110D01*
X103250500Y-83184108D01*
X103216392Y-83056814D01*
X103150500Y-82942686D01*
X103057314Y-82849500D01*
X102998194Y-82815367D01*
X102943187Y-82783608D01*
X102879539Y-82766554D01*
X102815892Y-82749500D01*
X102815891Y-82749500D01*
X98374500Y-82749500D01*
X98307461Y-82729815D01*
X98261706Y-82677011D01*
X98250500Y-82625500D01*
X98250500Y-79184110D01*
X98250500Y-79184108D01*
X98216392Y-79056814D01*
X98150500Y-78942686D01*
X98057314Y-78849500D01*
X98000250Y-78816554D01*
X97943187Y-78783608D01*
X97879539Y-78766554D01*
X97815892Y-78749500D01*
X97815891Y-78749500D01*
X94124500Y-78749500D01*
X94057461Y-78729815D01*
X94011706Y-78677011D01*
X94000500Y-78625500D01*
X94000500Y-75374500D01*
X94020185Y-75307461D01*
X94072989Y-75261706D01*
X94124500Y-75250500D01*
X142315890Y-75250500D01*
X142315892Y-75250500D01*
X142443186Y-75216392D01*
X142557314Y-75150500D01*
X142650500Y-75057314D01*
X142716392Y-74943186D01*
X142750500Y-74815892D01*
X142750500Y-74167979D01*
X142770185Y-74100940D01*
X142822989Y-74055185D01*
X142892147Y-74045241D01*
X142955703Y-74074266D01*
X142984855Y-74112026D01*
X142984866Y-74112020D01*
X142984911Y-74112098D01*
X142985713Y-74113137D01*
X142986896Y-74115536D01*
X143114734Y-74336957D01*
X143114745Y-74336973D01*
X143270388Y-74539811D01*
X143270394Y-74539818D01*
X143451181Y-74720605D01*
X143451187Y-74720610D01*
X143654035Y-74876261D01*
X143654042Y-74876265D01*
X143875457Y-75004100D01*
X143875462Y-75004102D01*
X143875465Y-75004104D01*
X144111687Y-75101950D01*
X144358660Y-75168126D01*
X144612157Y-75201500D01*
X144612164Y-75201500D01*
X145767836Y-75201500D01*
X145767843Y-75201500D01*
X146021340Y-75168126D01*
X146268313Y-75101950D01*
X146504535Y-75004104D01*
X146725965Y-74876261D01*
X146928813Y-74720610D01*
X147109610Y-74539813D01*
X147265261Y-74336965D01*
X147393104Y-74115535D01*
X147490950Y-73879313D01*
X147557126Y-73632340D01*
X147590500Y-73378843D01*
X147590500Y-73123157D01*
X147557126Y-72869660D01*
X147490950Y-72622687D01*
X147393104Y-72386465D01*
X147393102Y-72386462D01*
X147393100Y-72386457D01*
X147265265Y-72165042D01*
X147265261Y-72165035D01*
X147109610Y-71962187D01*
X147109605Y-71962181D01*
X146928818Y-71781394D01*
X146928811Y-71781388D01*
X146725973Y-71625745D01*
X146725971Y-71625743D01*
X146725965Y-71625739D01*
X146725960Y-71625736D01*
X146725957Y-71625734D01*
X146504542Y-71497899D01*
X146504531Y-71497894D01*
X146268322Y-71400053D01*
X146268315Y-71400051D01*
X146268313Y-71400050D01*
X146021340Y-71333874D01*
X145965007Y-71326457D01*
X145767850Y-71300500D01*
X145767843Y-71300500D01*
X144612157Y-71300500D01*
X144612149Y-71300500D01*
X144386826Y-71330165D01*
X144358660Y-71333874D01*
X144111687Y-71400050D01*
X144111677Y-71400053D01*
X143875468Y-71497894D01*
X143875457Y-71497899D01*
X143654042Y-71625734D01*
X143654026Y-71625745D01*
X143451188Y-71781388D01*
X143451181Y-71781394D01*
X143270394Y-71962181D01*
X143270388Y-71962188D01*
X143114745Y-72165026D01*
X143114734Y-72165042D01*
X142986893Y-72386467D01*
X142985709Y-72388870D01*
X142985166Y-72389459D01*
X142984866Y-72389980D01*
X142984749Y-72389912D01*
X142938401Y-72440287D01*
X142870805Y-72457965D01*
X142804382Y-72436291D01*
X142760221Y-72382147D01*
X142750500Y-72334020D01*
X142750500Y-65374500D01*
X142770185Y-65307461D01*
X142822989Y-65261706D01*
X142874500Y-65250500D01*
X147315890Y-65250500D01*
X147315892Y-65250500D01*
X147443186Y-65216392D01*
X147557314Y-65150500D01*
X147650500Y-65057314D01*
X147716392Y-64943186D01*
X147750500Y-64815892D01*
X147750500Y-60374500D01*
X147770185Y-60307461D01*
X147822989Y-60261706D01*
X147874500Y-60250500D01*
X151192375Y-60250500D01*
X151259414Y-60270185D01*
G37*
G04 #@! TD.AperFunction*
G04 #@! TA.AperFunction,Conductor*
G36*
X181055702Y-102905383D02*
G01*
X181062180Y-102911415D01*
X181613181Y-103462416D01*
X181646666Y-103523739D01*
X181649500Y-103550097D01*
X181649500Y-105449902D01*
X181629815Y-105516941D01*
X181613181Y-105537583D01*
X180408966Y-106741797D01*
X180347643Y-106775282D01*
X180277951Y-106770298D01*
X180248401Y-106754435D01*
X180207816Y-106724949D01*
X180207810Y-106724945D01*
X180198504Y-106720204D01*
X180147707Y-106672230D01*
X180130912Y-106604409D01*
X180153449Y-106538274D01*
X180198507Y-106499232D01*
X180207555Y-106494622D01*
X180261716Y-106455270D01*
X180261717Y-106455270D01*
X179629408Y-105822962D01*
X179692993Y-105805925D01*
X179807007Y-105740099D01*
X179900099Y-105647007D01*
X179965925Y-105532993D01*
X179982962Y-105469409D01*
X180615270Y-106101717D01*
X180615270Y-106101716D01*
X180654622Y-106047554D01*
X180751095Y-105858217D01*
X180816757Y-105656130D01*
X180816757Y-105656127D01*
X180850000Y-105446246D01*
X180850000Y-105233753D01*
X180816757Y-105023872D01*
X180816757Y-105023869D01*
X180751095Y-104821782D01*
X180654624Y-104632449D01*
X180615270Y-104578282D01*
X180615269Y-104578282D01*
X179982962Y-105210590D01*
X179965925Y-105147007D01*
X179900099Y-105032993D01*
X179807007Y-104939901D01*
X179692993Y-104874075D01*
X179629409Y-104857037D01*
X180299627Y-104186818D01*
X180360950Y-104153333D01*
X180387307Y-104150499D01*
X180397872Y-104150499D01*
X180457483Y-104144091D01*
X180592331Y-104093796D01*
X180707546Y-104007546D01*
X180793796Y-103892331D01*
X180844091Y-103757483D01*
X180850500Y-103697873D01*
X180850499Y-102999094D01*
X180870183Y-102932057D01*
X180922987Y-102886302D01*
X180992146Y-102876358D01*
X181055702Y-102905383D01*
G37*
G04 #@! TD.AperFunction*
G04 #@! TA.AperFunction,Conductor*
G36*
X164942539Y-60270185D02*
G01*
X164988294Y-60322989D01*
X164999500Y-60374500D01*
X164999500Y-64815891D01*
X165033608Y-64943187D01*
X165066554Y-65000250D01*
X165099500Y-65057314D01*
X165192686Y-65150500D01*
X165306814Y-65216392D01*
X165434108Y-65250500D01*
X169875500Y-65250500D01*
X169942539Y-65270185D01*
X169988294Y-65322989D01*
X169999500Y-65374500D01*
X169999500Y-72377240D01*
X169979815Y-72444279D01*
X169927011Y-72490034D01*
X169857853Y-72499978D01*
X169794297Y-72470953D01*
X169760939Y-72424693D01*
X169754083Y-72408142D01*
X169745104Y-72386465D01*
X169745101Y-72386460D01*
X169745100Y-72386457D01*
X169617265Y-72165042D01*
X169617261Y-72165035D01*
X169461610Y-71962187D01*
X169461605Y-71962181D01*
X169280818Y-71781394D01*
X169280811Y-71781388D01*
X169077973Y-71625745D01*
X169077971Y-71625743D01*
X169077965Y-71625739D01*
X169077960Y-71625736D01*
X169077957Y-71625734D01*
X168856542Y-71497899D01*
X168856531Y-71497894D01*
X168620322Y-71400053D01*
X168620315Y-71400051D01*
X168620313Y-71400050D01*
X168373340Y-71333874D01*
X168317007Y-71326457D01*
X168119850Y-71300500D01*
X168119843Y-71300500D01*
X166964157Y-71300500D01*
X166964149Y-71300500D01*
X166738826Y-71330165D01*
X166710660Y-71333874D01*
X166463687Y-71400050D01*
X166463677Y-71400053D01*
X166227468Y-71497894D01*
X166227457Y-71497899D01*
X166006042Y-71625734D01*
X166006026Y-71625745D01*
X165803188Y-71781388D01*
X165803181Y-71781394D01*
X165622394Y-71962181D01*
X165622388Y-71962188D01*
X165466745Y-72165026D01*
X165466734Y-72165042D01*
X165338899Y-72386457D01*
X165338894Y-72386468D01*
X165241053Y-72622677D01*
X165241050Y-72622687D01*
X165174874Y-72869661D01*
X165141500Y-73123149D01*
X165141500Y-73378850D01*
X165167457Y-73576007D01*
X165174874Y-73632340D01*
X165241050Y-73879312D01*
X165241053Y-73879322D01*
X165338894Y-74115531D01*
X165338899Y-74115542D01*
X165379024Y-74185040D01*
X165395497Y-74252940D01*
X165372644Y-74318967D01*
X165317723Y-74362158D01*
X165248170Y-74368799D01*
X165186067Y-74336783D01*
X165183956Y-74334721D01*
X159561415Y-68712180D01*
X159527930Y-68650857D01*
X159532914Y-68581165D01*
X159574786Y-68525232D01*
X159640250Y-68500815D01*
X159649096Y-68500499D01*
X160587871Y-68500499D01*
X160587872Y-68500499D01*
X160647483Y-68494091D01*
X160782331Y-68443796D01*
X160897546Y-68357546D01*
X160983796Y-68242331D01*
X161034091Y-68107483D01*
X161040500Y-68047873D01*
X161040499Y-66452128D01*
X161034091Y-66392517D01*
X161023348Y-66363714D01*
X160983797Y-66257671D01*
X160983793Y-66257664D01*
X160897547Y-66142455D01*
X160897544Y-66142452D01*
X160782335Y-66056206D01*
X160782328Y-66056202D01*
X160647482Y-66005908D01*
X160647483Y-66005908D01*
X160587883Y-65999501D01*
X160587881Y-65999500D01*
X160587873Y-65999500D01*
X160587865Y-65999500D01*
X160534500Y-65999500D01*
X160467461Y-65979815D01*
X160421706Y-65927011D01*
X160410500Y-65875500D01*
X160410500Y-62360791D01*
X160430185Y-62293752D01*
X160461612Y-62260475D01*
X160592073Y-62165690D01*
X160725690Y-62032073D01*
X160836760Y-61879199D01*
X160922547Y-61710832D01*
X160980940Y-61531118D01*
X160985274Y-61503752D01*
X161010500Y-61344486D01*
X161010500Y-61155513D01*
X160980940Y-60968881D01*
X160922545Y-60789163D01*
X160836759Y-60620800D01*
X160725690Y-60467927D01*
X160719944Y-60462181D01*
X160686459Y-60400858D01*
X160691443Y-60331166D01*
X160733315Y-60275233D01*
X160798779Y-60250816D01*
X160807625Y-60250500D01*
X164875500Y-60250500D01*
X164942539Y-60270185D01*
G37*
G04 #@! TD.AperFunction*
G04 #@! TA.AperFunction,Conductor*
G36*
X159942539Y-55270185D02*
G01*
X159988294Y-55322989D01*
X159999500Y-55374500D01*
X159999500Y-59815891D01*
X160020270Y-59893407D01*
X160018607Y-59963257D01*
X159979444Y-60021119D01*
X159915216Y-60048623D01*
X159900495Y-60049500D01*
X159715514Y-60049500D01*
X159528881Y-60079059D01*
X159349163Y-60137454D01*
X159180800Y-60223240D01*
X159142846Y-60250816D01*
X159027927Y-60334310D01*
X159027925Y-60334312D01*
X159027924Y-60334312D01*
X158894312Y-60467924D01*
X158894312Y-60467925D01*
X158894310Y-60467927D01*
X158846610Y-60533579D01*
X158783240Y-60620800D01*
X158697454Y-60789163D01*
X158639059Y-60968881D01*
X158609500Y-61155513D01*
X158609500Y-61344486D01*
X158639059Y-61531118D01*
X158697454Y-61710836D01*
X158783240Y-61879199D01*
X158894310Y-62032073D01*
X159027927Y-62165690D01*
X159158386Y-62260474D01*
X159201051Y-62315803D01*
X159209500Y-62360791D01*
X159209500Y-65875500D01*
X159189815Y-65942539D01*
X159137011Y-65988294D01*
X159085501Y-65999500D01*
X158992130Y-65999500D01*
X158992123Y-65999501D01*
X158932516Y-66005908D01*
X158797671Y-66056202D01*
X158797664Y-66056206D01*
X158682455Y-66142452D01*
X158682452Y-66142455D01*
X158596206Y-66257664D01*
X158596202Y-66257671D01*
X158545908Y-66392517D01*
X158541303Y-66435354D01*
X158539501Y-66452123D01*
X158539500Y-66452135D01*
X158539500Y-66515732D01*
X158519815Y-66582771D01*
X158467011Y-66628526D01*
X158397853Y-66638470D01*
X158334297Y-66609445D01*
X158315182Y-66588618D01*
X158216020Y-66452135D01*
X158203828Y-66435354D01*
X158064646Y-66296172D01*
X157905405Y-66180476D01*
X157875348Y-66165161D01*
X157824553Y-66117189D01*
X157811869Y-66086772D01*
X157809577Y-66078216D01*
X157796870Y-66056206D01*
X157730524Y-65941290D01*
X157730518Y-65941282D01*
X153400066Y-61610831D01*
X153366581Y-61549508D01*
X153365274Y-61503752D01*
X153390500Y-61344486D01*
X153390500Y-61155513D01*
X153360940Y-60968881D01*
X153302545Y-60789163D01*
X153216759Y-60620800D01*
X153105690Y-60467927D01*
X152972073Y-60334310D01*
X152819199Y-60223240D01*
X152731251Y-60178428D01*
X152680455Y-60130453D01*
X152663660Y-60062632D01*
X152680158Y-60005944D01*
X152716392Y-59943186D01*
X152750500Y-59815892D01*
X152750500Y-55374500D01*
X152770185Y-55307461D01*
X152822989Y-55261706D01*
X152874500Y-55250500D01*
X159875500Y-55250500D01*
X159942539Y-55270185D01*
G37*
G04 #@! TD.AperFunction*
G04 #@! TD*
M02*
