G04 #@! TF.GenerationSoftware,KiCad,Pcbnew,10.0.6*
G04 #@! TF.CreationDate,2026-10-07T20:55:34+02:00*
G04 #@! TF.ProjectId,Starbie,53746172-6269-4652-9e6b-696361645f70,rev?*
G04 #@! TF.SameCoordinates,Original*
G04 #@! TF.FileFunction,Soldermask,Top*
G04 #@! TF.FilePolarity,Negative*
%FSLAX46Y46*%
G04 Gerber Fmt 4.6, Leading zero omitted, Abs format (unit mm)*
G04 Created by KiCad (PCBNEW 10.0.6) date 2026-10-07 20:55:34*
%MOMM*%
%LPD*%
G01*
G04 APERTURE LIST*
G04 Aperture macros list*
%AMRoundRect*
0 Rectangle with rounded corners*
0 $1 Rounding radius*
0 $2 $3 $4 $5 $6 $7 $8 $9 X,Y pos of 4 corners*
0 Add a 4 corners polygon primitive as box body*
4,1,4,$2,$3,$4,$5,$6,$7,$8,$9,$2,$3,0*
0 Add four circle primitives for the rounded corners*
1,1,$1+$1,$2,$3*
1,1,$1+$1,$4,$5*
1,1,$1+$1,$6,$7*
1,1,$1+$1,$8,$9*
0 Add four rect primitives between the rounded corners*
20,1,$1+$1,$2,$3,$4,$5,0*
20,1,$1+$1,$4,$5,$6,$7,0*
20,1,$1+$1,$6,$7,$8,$9,0*
20,1,$1+$1,$8,$9,$2,$3,0*%
G04 Aperture macros list end*
%ADD10O,1.700000X1.700000*%
%ADD11R,1.700000X1.700000*%
%ADD12O,3.800000X2.900000*%
%ADD13RoundRect,0.152400X1.063600X0.609600X-1.063600X0.609600X-1.063600X-0.609600X1.063600X-0.609600X0*%
%ADD14C,1.524000*%
%ADD15RoundRect,0.152400X-1.063600X-0.609600X1.063600X-0.609600X1.063600X0.609600X-1.063600X0.609600X0*%
%ADD16C,1.700000*%
%ADD17C,4.000000*%
%ADD18C,2.200000*%
%ADD19C,1.400000*%
%ADD20R,1.500000X1.500000*%
%ADD21C,1.500000*%
G04 APERTURE END LIST*
D10*
G04 #@! TO.C,J2*
X152556000Y-97000000D03*
X155096000Y-97000000D03*
X157636000Y-97000000D03*
D11*
X160176000Y-97000000D03*
D12*
X145190000Y-73251000D03*
X145190000Y-96365000D03*
X167542000Y-73251000D03*
X167542000Y-96365000D03*
G04 #@! TD*
D13*
G04 #@! TO.C,U2*
X176665000Y-80760000D03*
D14*
X177500000Y-80760000D03*
D13*
X176665000Y-83300000D03*
D14*
X177500000Y-83300000D03*
D13*
X176665000Y-85840000D03*
D14*
X177500000Y-85840000D03*
D13*
X176665000Y-88380000D03*
D14*
X177500000Y-88380000D03*
D13*
X176665000Y-90920000D03*
D14*
X177500000Y-90920000D03*
D13*
X176665000Y-93460000D03*
D14*
X177500000Y-93460000D03*
D13*
X176665000Y-96000000D03*
D14*
X177500000Y-96000000D03*
X192740000Y-96000000D03*
D15*
X193575000Y-96000000D03*
D14*
X192740000Y-93460000D03*
D15*
X193575000Y-93460000D03*
D14*
X192740000Y-90920000D03*
D15*
X193575000Y-90920000D03*
D14*
X192740000Y-88380000D03*
D15*
X193575000Y-88380000D03*
D14*
X192740000Y-85840000D03*
D15*
X193575000Y-85840000D03*
D14*
X192740000Y-83300000D03*
D15*
X193575000Y-83300000D03*
D14*
X192740000Y-80760000D03*
D15*
X193575000Y-80760000D03*
G04 #@! TD*
D16*
G04 #@! TO.C,SW2*
X114750000Y-119750000D03*
D17*
X119830000Y-119750000D03*
D16*
X124910000Y-119750000D03*
D18*
X122370000Y-114670000D03*
X116020000Y-117210000D03*
G04 #@! TD*
D16*
G04 #@! TO.C,SW1*
X119420000Y-91000000D03*
D17*
X124500000Y-91000000D03*
D16*
X129580000Y-91000000D03*
D18*
X127040000Y-85920000D03*
X120690000Y-88460000D03*
G04 #@! TD*
D19*
G04 #@! TO.C,R1*
X159810000Y-61250000D03*
X152190000Y-61250000D03*
G04 #@! TD*
D11*
G04 #@! TO.C,J1*
X179500000Y-102800000D03*
D16*
X179500000Y-105340000D03*
X179500000Y-107880000D03*
X179500000Y-110420000D03*
X179500000Y-112960000D03*
X179500000Y-115500000D03*
X179500000Y-118040000D03*
X179500000Y-120580000D03*
G04 #@! TD*
D20*
G04 #@! TO.C,U1*
X159790000Y-67250000D03*
D21*
X157250000Y-67250000D03*
X154710000Y-67250000D03*
X152170000Y-67250000D03*
G04 #@! TD*
M02*
