G04 #@! TF.GenerationSoftware,KiCad,Pcbnew,10.0.6*
G04 #@! TF.CreationDate,2026-10-07T20:55:34+02:00*
G04 #@! TF.ProjectId,Starbie,53746172-6269-4652-9e6b-696361645f70,rev?*
G04 #@! TF.SameCoordinates,Original*
G04 #@! TF.FileFunction,Profile,NP*
%FSLAX46Y46*%
G04 Gerber Fmt 4.6, Leading zero omitted, Abs format (unit mm)*
G04 Created by KiCad (PCBNEW 10.0.6) date 2026-10-07 20:55:34*
%MOMM*%
%LPD*%
G01*
G04 APERTURE LIST*
G04 #@! TA.AperFunction,Profile*
%ADD10C,0.050000*%
G04 #@! TD*
G04 APERTURE END LIST*
D10*
X93500000Y-74750000D02*
X93500000Y-79250000D01*
X93500000Y-74750000D02*
X142250000Y-74750000D01*
X97750000Y-79250000D02*
X93500000Y-79250000D01*
X97750000Y-79250000D02*
X97750000Y-83250000D01*
X97750000Y-83250000D02*
X102750000Y-83250000D01*
X97750000Y-120500000D02*
X97750000Y-130500000D01*
X97750000Y-130500000D02*
X97750000Y-140500000D01*
X97750000Y-140500000D02*
X122250000Y-140500000D01*
X102750000Y-83250000D02*
X102750000Y-88000000D01*
X102750000Y-88000000D02*
X108250000Y-88000000D01*
X108250000Y-88000000D02*
X108250000Y-92250000D01*
X108250000Y-107250000D02*
X108250000Y-120500000D01*
X108250000Y-107250000D02*
X113000000Y-107250000D01*
X108250000Y-120500000D02*
X97750000Y-120500000D01*
X108500000Y-92250000D02*
X108250000Y-92250000D01*
X108500000Y-92250000D02*
X113000000Y-92250000D01*
X113000000Y-92250000D02*
X113000000Y-97250000D01*
X113000000Y-97250000D02*
X113000000Y-107250000D01*
X122250000Y-135250000D02*
X122250000Y-140500000D01*
X127750000Y-130500000D02*
X132750000Y-130500000D01*
X127750000Y-135250000D02*
X122250000Y-135250000D01*
X127750000Y-135250000D02*
X127750000Y-130500000D01*
X132750000Y-125250000D02*
X137500000Y-125250000D01*
X132750000Y-130500000D02*
X132750000Y-125250000D01*
X137500000Y-120250000D02*
X142500000Y-120250000D01*
X137500000Y-125250000D02*
X137500000Y-120250000D01*
X142250000Y-64750000D02*
X147250000Y-64750000D01*
X142250000Y-74750000D02*
X142250000Y-64750000D01*
X142500000Y-115250000D02*
X147500000Y-115250000D01*
X142500000Y-120250000D02*
X142500000Y-115250000D01*
X147250000Y-59750000D02*
X152250000Y-59750000D01*
X147250000Y-64750000D02*
X147250000Y-59750000D01*
X147500000Y-110250000D02*
X152500000Y-110250000D01*
X147500000Y-115250000D02*
X147500000Y-110250000D01*
X152250000Y-54750000D02*
X160500000Y-54750000D01*
X152250000Y-59750000D02*
X152250000Y-54750000D01*
X152500000Y-105250000D02*
X157500000Y-105250000D01*
X152500000Y-110250000D02*
X152500000Y-105250000D01*
X157500000Y-105250000D02*
X157500000Y-110250000D01*
X157500000Y-110250000D02*
X162500000Y-110250000D01*
X160500000Y-59750000D02*
X160500000Y-54750000D01*
X162500000Y-110250000D02*
X162500000Y-115250000D01*
X162500000Y-115250000D02*
X167500000Y-115250000D01*
X165500000Y-59750000D02*
X160500000Y-59750000D01*
X165500000Y-64750000D02*
X165500000Y-59750000D01*
X167500000Y-115250000D02*
X167500000Y-120250000D01*
X167500000Y-120250000D02*
X172500000Y-120250000D01*
X170500000Y-64750000D02*
X165500000Y-64750000D01*
X170500000Y-74750000D02*
X170500000Y-64750000D01*
X172500000Y-120250000D02*
X172500000Y-125250000D01*
X172500000Y-125250000D02*
X177500000Y-125250000D01*
X177500000Y-125250000D02*
X177500000Y-130250000D01*
X177500000Y-130250000D02*
X182500000Y-130250000D01*
X182500000Y-130250000D02*
X182500000Y-135250000D01*
X182500000Y-135250000D02*
X187500000Y-135250000D01*
X187500000Y-135250000D02*
X187500000Y-140500000D01*
X187500000Y-140500000D02*
X212000000Y-140500000D01*
X196750000Y-92250000D02*
X201500000Y-92250000D01*
X196750000Y-107250000D02*
X196750000Y-92250000D01*
X201500000Y-88000000D02*
X207000000Y-88000000D01*
X201500000Y-92250000D02*
X201500000Y-88000000D01*
X201500000Y-107250000D02*
X196750000Y-107250000D01*
X201500000Y-120500000D02*
X201500000Y-107250000D01*
X207000000Y-83250000D02*
X212000000Y-83250000D01*
X207000000Y-88000000D02*
X207000000Y-83250000D01*
X212000000Y-79250000D02*
X216250000Y-79250000D01*
X212000000Y-80250000D02*
X212000000Y-79250000D01*
X212000000Y-83250000D02*
X212000000Y-80250000D01*
X212000000Y-120500000D02*
X201500000Y-120500000D01*
X212000000Y-140500000D02*
X212000000Y-120500000D01*
X216250000Y-74750000D02*
X170500000Y-74750000D01*
X216250000Y-79250000D02*
X216250000Y-74750000D01*
M02*
